<mxfile host="app.diagrams.net" modified="2024-04-15T09:59:24.949Z" agent="Mozilla/5.0 (Windows NT 10.0; Win64; x64) AppleWebKit/537.36 (KHTML, like Gecko) Chrome/123.0.0.0 Safari/537.36" etag="tA-M491F-igCra9nFlxa" version="24.2.5" type="github">
  <diagram name="Page-1" id="2YBvvXClWsGukQMizWep">
    <mxGraphModel dx="2074" dy="1098" grid="1" gridSize="10" guides="1" tooltips="1" connect="1" arrows="1" fold="1" page="1" pageScale="1" pageWidth="850" pageHeight="1100" math="0" shadow="0">
      <root>
        <mxCell id="0" />
        <mxCell id="1" parent="0" />
        <mxCell id="d8hLdGYivJeJRMuyoAxL-1" value="" style="shape=image;verticalLabelPosition=bottom;labelBackgroundColor=default;verticalAlign=top;aspect=fixed;imageAspect=0;image=data:image/png,iVBORw0KGgoAAAANSUhEUgAAA8AAAAIcCAIAAAC2P1AsAAAAAXNSR0IArs4c6QAAAARnQU1BAACxjwv8YQUAAAAJcEhZcwAADsMAAA7DAcdvqGQAAIiVSURBVHhe7b3f0x3Veed7/pu5m7u5ylWmzlTKF1SlxlVJuerkMJWKz1zgOolzJsUkdZxUwrEzJMYMiWUGA45wAGNjY2NAIBkBAmEkCyyBLGQkEEj8ELJ+65XQjxeF833fp3m8ePrHu/bevffuH59PPbVrd/fq1avX02ut71q9uvt/e/DJf4dhGIZhGIZhWKYhoDEMwzAMwzBsAkNAYxiGYRiGYdgEhoDGMAzDMAzDsAkMAY1hGIZhGIZhExgCGsMwDMMwDMMmMAQ0hmEYhmEYhk1gCGgMwzAMwzAMm8AQ0BiGYRiGYRg2gSGgMQzDMAzDMGwCQ0BjGIZhGIZh2ASGgMYwDMMwDMOwCQwBjWEYhmEYhmETGAIawzAMwzAMwyYwBDSGYRiGYRiGTWAIaAzDMAzDMAybwBDQGIZhGIZhGDaBIaAxDMMwDMMwbAJDQGMYhmEYhmHYBDalgP4EAAAAAKDPBH2bbwhoAAAAABgjQd/mGwIaAAAAAMZI0Lf5hoAGAAAAgDES9G2+IaABAAAAYIwEfZtvCGgAAAAAGCNB3+YbAhoAAAAACg6fOP/ArsObd77x5Yd+7qZF2d5jp4pAQyHo23xDQAMAAACMHenmW7fs+/ymbb/7D481mALcvu21wSjpoG/zDQENAAAAMF6khr/80M+DUN7Qbrp/5wBkdNC3+YaABgAAABgjpy9eufnh3UEZT2Ta/ejplSK6HhL0bb4hoAEAAABGx+4jJzacsJFjv/eNJ7a//n4Rad8I+jbfENAAAAAA42LzzjeCDp7RFGERda8I+jbfENAAAAAAI6J19Wz2lR/vubp6vThGTwj6Nt8Q0AAAAABjYU7q2ez2ba8Vh+kJQd/mGwIaAAAAYBQ8vOetIHlbNx2iOFgfCPo23xDQAAAAAMPnwPtnfu8bTwS9Ow/bfeREccjOE/RtviGgAQAAAAbOypVrX7hre1C6c7LPb9p2+uKV4sDdJujbfENAAwAAAAycWx57JcjcuVpfJkMHfZtvCGgAAACAHnD09MoDuw5veubAV368Z/PON144dPz4uUvFtkb2HjsVBO4C7MD7Z4rDd5igb/MNAQ0AAADQaXYfOfHFzTuCQjW75bFXDp84X4SroW7fuZoOWhy+wwR9m28IaAAAAICOcnX1es7si6/8eM/KlWvFPp/lyf3HQuCFmQ5dJKKrBH2bbwhoAAAAgC4i9Xzzw7uDKq2zG+959ujplWLPT1EMrXyvezq76f6dRTq6StC3+YaABgAAAOgit27ZFyRps91wx1PhFXKP7n0nhFmwbTi9ZLkEfZtvCGgAAACAzvHCoeNBjObY733jib3HThVRLGn2c2odfx1H0Lf5hoAGAAAA6BazTL3QjvZ2jsMnzodNizcJep2LnVQHCfo23xDQAAAAAN1ixm9uf3HzDsnWSWeAzMm6/Chh0Lf5hoAGAAAA6BazfzXw5od3L+bD3RuadHxxVt0j6Nt8Q0ADAAAALIjTF688uf/Y5p1vyPSn/N4M0YWpFy2aOgPFiSWsXLn2wqHjlg+eG3uPnarMkPkR9G2+IaABAAAA5o6k81d+vCeIS9kXN+8IkxykJkOYvpt/MfHq6vVH977T/Gjjjfc8u+mZA+F1InMi6Nt8Q0ADAAAAzBfJwRvueCooxdSkKf3tGTfdvzNs7btZD+GBXYebMyHYF+7aHroWrRP0bb4hoAEAAADmyOET5zOF48N73jp98UpYOQC7+eHdU/cKJKO3v/5+kZVtE/RtviGgAQAAAObIRC9jnijweOyWx16Zx+vwgr7NNwQ0AAAAwLyY7nsoWNluun/n6YtXimxtiaBv8w0BDQAAADAvKh8cxKazz2/a1u5rOoK+zTcENAAAAMBcuLp6vSMvYx6MfeGu7S2OQwd9m28IaAAAAIC5sPfYqaD/sNntpvt3tjUfOujbfENAAwAAAMwFJkDPyb7y4z1FFs9G0Lf5hoAGAAAAmAtP7j8WlB/WlqlzUuTyDAR9m28IaAAAAIApOfD+mVu37PvyQz///KZtX9y84ys/3rN55xv+SRQE9PxMuW2ZPAtB3+YbAhoAAABgYk5fvCLdHFSd280P7z584jxTOOZqj+59p3DGtAR9m28IaAAAAIDJ2PDT3GYNChub3T6/aduMTxMGfZtvCGgAAACACTh84jwvp+uIzTgTOujbfENAAwAAAORydfX65zdtCzIOW5bdumVf4ZipCPo23xDQAAAAALls3vlG0HDYEk2dmcIxUxH0bb4hoAEAAACyuLp6PWfqM7ZIO/D+mcI9kxP0bb4hoAEAAACy2H3kRFBv2NJt8843CvdMTtC3+YaABgAAgEXz8cfXVy5dPnvh4qmzF8xOn9OKKx9fb+cTzXPi7h0Hg3rDlm6zTIMO+jbfENAAAACwOD66cvXk2Qvv/+ZMnUlMX722WoTuGF/58Z6g3rCl25cf+nnhnskJ+jbfENAAAACwCK6trjZL59ROnVvp4Gg073XuoM3yScKgb/MNAQ0AAABz56MrVz8oqeRm++Dk2StXrxX7dwMEdAdtlhdxBH2bbwhoAAAAmC8rly4HcZxp0tyd0tC3PPZKUG9YF6xwz+QEfZtvCGgAAACYIx9duRpk8UTWNQ0NQyLo23xDQAMAAMC8uLa6OunMjbJ9cPLsxx93+u0c0FOCvs03BDQAAADMhX/75JMTp88HNTydnTx7QbEBtEvQt/mGgAYAAIC5MPXU50pTbEW8JT6+fv3qtdULly5/dOVqx98kDZ0i6Nt8Q0ADAABA+0jIzj55IzXFVhbHWnNu5VI40MmzF5jyATkEfZtvCGgAAABon/MXP0pFbSsmrVzEvs7Va6sfnDwbwphpfWe/xgLdIejbfENAAwAAQMv82yeffHjqXBC1s1s6CL3h/JC1wIxDQyNB3+YbAhoAAABaZsZX1zWYzYTOjP/0uRVLD0AlQd/mGwIaAAAAWkbKNWjZtuzE6XMTvRpPUrtIE0CJoG/zDQENAAAAU3L12mrl2+Xqpia3YhNFfqpqEJqpHWAEfZtvCGhon6vXzp84vfudDx5/7fA/y7bv/iPZB795vtgMAAC9RdLz0uUrp85eSEWqFK3WXLh0+fr6BOVrq6vp1uXaB7854xJ/LeXnVkx/6/f0uRUltdgGoyTo23xDQOdy+crJPQf+xrTgsy//ycmz+4oNUELqOVwwsrfee6TYDAAAPUTS+eyFi6k2LZtU6cqly+2+/nl2u3L12urH10+crnioUQlGQ4+ZoFXybXECWgJUumpDu/jRe8UOXeLj61ceeeZ3QiacOf96sXkotOUjhQl5JUNAAwD0l0uXrwTp2SM7efaCjTpXmjbZwDmMkKBV8m1xAlr6KUTSYE+++Pt7DvzN+YtvFTsvmwNv3RVSKFMKi81DoS0fIaABAIbE2QuXgugcmDV84xCGTdAq+dZRAe3WEZG667X/HhIm2/bSHxSbO8blKycPHf3e87+8Sbq/WJVHWz5CQAMADIbBq2fZidPni7OFkRG0Sr51XUDLXtz350UUy+OVg18LqZI9+eLvF5u7wZnzr0sxK1WewtcO/3OxLY+2fISABgAYBl2bzTw/K38kHMZA0Cr51gMBLVv6bONDR78XkiTr2hSO7bv/KKRwYQJalvoIAQ0AMAA69TKNeRsvthsnQavk25IF9JMv/r696ezFfX9e1n9uz//ypiKWJfHx9SuPP/+5NEmPPPM7l6+cLDZ3gzkJ6Cl8hIAGABgA8/sYSgdNAlqsXLp86tzKqbMXZGcvXFpFVQ+doFXybckCetdr/73YvM7Js/vKL7swW/oDhdLQv357sxK858Df6M/Va52bL/Xoc/8xZForAnoKHyGgAQD6zkdz+xZ3N+3CpcsfnorvufuADxkOnaBV8q1bAlpIm4YwZu988HgRYiOk8CTgcgTuxY/eU8i5DiTbJ0Uy01Mmfa/chulcjIAWG/pIqQ2bZKmAtmyZIk88P2VTTOxRL2i6HY1ZvDnjoQEAFsyohp+bjXd0DJigVfKtcwJa0iSEMfMXSrz74c/2vXHb9t1/tO2lP9D6Q0e/Z+u1454Df5Pu8vjzn5Nksa2ORLN2D1rz+1v/vSLU7nX6RnvZNIbnf3mTQtp0joYhVR1Xp/bDp/9D+ShSn0WgepQM7V4e6NVxXzn4taCkFaFSrpgVfwhftubvv7TlI51+2CTToc9ffEsZmGaL/mtN8+0FeVwnaO4OplPW7mUvB3Re5fxR9urUcrpPs3hzxkMDACyFf5vzt7h7Z3xsZaikrfNE1jkBLSqFoIcML8TQolZK0pXHX2Xh89FSwCFA2SzCQKUirBTQktrPvvwnIWQwBagTTx9fvxK6AWWTkkuFfhB2zdY8dNqWj8rZpUSq3xJWuik27wg5UtWKMPPs6sbaJb4rLww3HbphnH4Wb854aACAJXL12ogeH8yxcyuXiqyBYRGa5nzrooCulB2ua4MI3r77j7Ty+V/elK40k0CRHrW99GdDJeRWfnFepoCW3mrWTG4K5mlz8hPpb9CTdAubGuyRZ37H9qqjLR9VZlezyVlhHLry4zUNJsFa7Pkp6j6FMHVWOZA8izdnPDQAwHIZz9vrMu2D35zha4WDJDTK+dZFAR3CmPkIZXijnA3HpmvcJEZtF9Ew/FlpkoDFnutkCuhKHV9nZeUUBtebzfTiybP7wvoGSzOkkrZ8NIWAlin3bHdDfQOp6hCmwcLuuiomGpsvT26Z2puzHxoAYLmcvXAxKEiM99wNktAi51vnBPTFj94LYcxcZJTjqRu1dU0zhZ4LH0nJEdB1Or7OHnnmd9Jhy+n04ge/eX777j+SVU4RfvS5/2hbzTYc7GzLR9MJaFkYxw09CuWPziL9UkywdCpFZW9Eef7ivj+vVLc+fG7M4s0ZDw0AsHRO8QRhyRDQgyS0yPnWOQFdKT6knHzyboM4UzBF+NqnT/tJ59kuZYWtkH7HX38qlasOZAFEjoAuD1gqWp+EHWaemEml2VZROd7p77WQ9gqbJI5tk1EpaiedYjtXH0k72ulIaOqPBGUIIAuzOCSIdZpKgMKns7e1vnL3ND/LOtu6HEIJKN+RCF2mWbw546EBAJbOidPng3zEENCDJLTI+dYtAS2BUqll0yG6OgH9+POfq3yZg8RWCCkLyrJyum0aZkMBXTlgKalUbF5XTmGrzOc8VO6eTsWuDFBsW2dhAnpqH4X+RuWzkuV5zHVU7q7jFpurHnMMCfDBYGl0Cdw0r2b05iyHBgAAgIXhLfWktmQB/cgzv+MTDConIcgkR9Jb83UC2sf/ApXi2IcSjUrBpCQVmzMUYeVRUj0npJZCABedlbun8Vfq4zRb5ieg2/JREJFyQQggC2EaqExqmuHlyRLS3MW2dRSDwle+lmRGb85yaAAAAFgYob3OtyUL6BxLR/5EpTjzW+RlyvfiZT67wymLHonCYluGIqwcEE01pSirT3+qr3L3dEBdUbmKdVuMgM6xHB+l2SVywjRQmVTFWWyu+rC5TBo3R7bO6M1ZDg0AAAALIzTW+dZ1AV2egFspvNL5A4HKZ87KAro8oCgrtmWovUrNZDLXrazRffJr5XOQ5UQ2sEQBnemjII6nE9DaS2F0XvYtm2DaWoSrf+e3vKAEN+etnBX2kqWulDV4c5ZDAwAAwMIILXW+dVdAS21U6r9K4eXTT8uUhY6s2JZQKaBd62yo9ip339C0l+1eKQdtUyZLEdAT+SiI45wwhk7twFt31b1rJbVUQH98/UrdhBOz5395U93742b05iyHBgAAgIURGuh866KA3r7+wrW6+935wssIIc2KbQkzCuiwKdNccoX1ZrYpkwUL6Nl9lBPG3llRfiavzlIBLZQnlT2T1CpnVoQwmebeFFMfGgAAABZGaJrzbckC+skXf18iT/bOB49L/QQBVEmO8EoJIc2KbQkzCuh8kZdas4CeSF3NT0DPyUcbhpF6rnRKg5XTZhI8BAv2yDO/Ex4qndGbxnSHBgAAgIUR2uV8W7KALk+f3ZAccZZSOYUjPBAmKrWaB9vwoJW7m+6stENHv6c4Pf7K3V2+5zA/AT0nH20YpvJJPtnjz3/u+V/epFSF9TLFWez8Wc5ffEvhm2VxOqdiRm+mTHpoAAAAWBihRc634QvoTG1aGazYlnHQ7VWPneUr4Mrd6+RgJQMT0JWno1xq/thhc45J4CpDKjtUMunyItzM3iyTf2gAAABYGKFFzrfhC+gcbfpx1Xcx/KUKYsOD6kTCVlmznkup3P3AW3cVmzOoPIXwdrkNWaSPmsO8++HPwib1cHSOtlVU7p7zHZar186/UvUlRZkPIc/ozTpyDg0AAAALIzTH+TZ8Af1a1TvFfv325mLzOpVxpupzw4NWHqXh5XqByt0nHZgMu8vSbxnmsEgfNYcpf8okvOq7cvf8Lkfl28EVp22d0ZvNNB8aAAAAFkZojvNt+AK6Mvyjz/3H9BG9Sk2Tftpww4NWfsvw+1v/feUjYgosqZfOfNX/sK9Z+IKdod0l5sqSqzwL5YdP/4eJnkRcpI+aw5QnQOtc0hHossKWhexSN0l5IjVcnn1ROcbswWb0ppj60AAAALAwQnOcb8MX0FJdjzzzOyG8TPpGeksSp/KVvTnjneGglSpcpvj3vXGbDqTf7bv/yBMT1F7d7o8//zlLp0y7u0ouZ51C+l5uJuNkimTDMdRF+qg5TKU+fvblPzl09HvaVPdOaOWti+zLV06mj+7JC8oExf/OB48rK3y9mzLKdjRm8eaMhwYAAIDFEFrkfBu+gBblCbXNJvVzJhl+FjkHrRy2bLAgmybdPYzICqm0ECaYzivsElikj5rDTOoyN594UzfbuM58R2MWb854aAAAAFgMoUXOt1EIaJHzHTu38ncNMw/64r4/D2GaLdz3n3T3dz54vNhznfMX3woBytb8mN0ifdQc5vKVk5X3DVJ78sXfl2wNK+Vo7T6p/N320h+UuxbTebOVQwMAAMACCI1yvo1FQF+9dl56K+xVNom2yqjyD3rgrbvS2/cNJuUUBLTYt9GnN9ye/+VNUszFbp+yYT+hOcMX6aMNw6gbE7amJm/Kp8rANLc9qRc/eu+Vg1+re21csMef/1zdFOQpvNnWoQEAAGDehHY538YioIX01mv17+KVSbzWPXI30UHPnH+9cjqymQSZzrosnR1tah581e4Nqqth/sCL+/68rLlTFumjnDDSr5X+kqd81PadDx63MOksZEPetIf50n1TUz6X7zYEpvNmK4cGAACAuRJa53xbnIC+fOWkNFOwZj1XiaRJiEQ20Wt0ddB3P/yZxPTzv7zJnu5SDHXS2fjgN8+HHJDVCWjD0ikJKGEnjaUD2aewmw/kWHZpL+2rGPRHadaanNv90nxKsHaRYpaeVhoyj7tIH+WEEVojoalzefblP5Fulioth1EKm8WoMkSRKxLlhvJEfxRea/LnTkztzdkPDQAAAHMiSLt8W5yA7jXSbSEHZJJBxWYAAAAA6BtB2uUbAjqLys8ZTjE0CwAAAAAdIUi7fENAb0zl8HP6oW8AAAAA6B1B3eUbAnoD6l6LwRNgAAAAAL0mqLt8Q0BvwK6qDy9rZbEZAAAAAPpJEHj5hoDemPByZdQzAAAAwABIBd5EhoDemI+vXzEN/f2t/7751XUAAAAA0BdScTuRIaCzkIZ+5eDXeO0GAAAAwGAI+jbfENAAAAAAMEaCvs03BDQAAAAAjJGgb/MNAQ0AAAAAYyTo23xDQAMAAADAGAn6Nt8Q0AAAAAAwRoK+zTcENAAAAACMkaBv8w0BDQAAAABjJOjbfENAAwAAAMAYCfo23xDQAAAAADBGgr7NNwQ0AAAAAIyRoG/zDQENAAAAAGMk6Nt8Q0ADAAAAwBgJ+jbfENAAAAAAMEaCvs03BDQAAAAAjJGgb/MNAQ0AAAAAYyTo23xDQAMAAADAGAn6Nt8Q0AAAAAAwRoK+zTcENAAAAACMkaBv8w0BDQAAAABjJOjbfENAAwAAAMAYCfo23xDQAAAAADBGgr7NNwQ0AAAAAIyRoG/zDQENAAAAAGMk6Nt8Q0ADAAAAwBgJ+jbfENAAAAAAMEaCvs03BDQAAAAAjJGgb/MNAQ0AAAAAYyTo23xDQAMAAADAGAn6Nt8Q0AAAAAAwRoK+zTcENAAAAACMkaBv8w0BDQAAAABjJOjbfENAAwAAAMAYCfo23xDQAAAAADBGgr7NNwQ0AAAAAIyRoG/zDQENAAAAAGMk6Nt8Q0ADAAAAwBgJ+jbfENAAAAAAMEaCvs03BDQAAAAAjJGgb/MNAQ0AAAAAYyTo23xDQAMAAADAGAn6Nt8Q0AAAAAAwRoK+zTcENAAAAACMkaBv8w0BDQAAAABjJOjbfENAAwAAAMAYCfo23xDQAAAAADBGgr7NNwQ0AAAAAIyRoG/zDQENAAAAAGMk6Nt8Q0ADAAAAwBgJ+jbfENAAAAAAMEaCvs03BDQAdIvr16+/8847e/a8/MQTTx448PqJE78pNpRQyEOHDm/duu2xxx5X4DfffOvatWvFNgAAmBBVqidPnlS9evz4hyOpToO+zTcENAB0BdXdW7Y89bd/e0uwb37zWwcP/roItB7s1Vdf/fa37w7BZLfc8lVtKsIBAEAeZ86c2bz5u6FGlT3yyE8aRjEGQNC3+YaABoBOcO7cudtvvyPU3ant3/+rIugnn2zdui1sTS0NCQAAzfzyl3tDLZrasGvUoG/zbbACOv8usKHACvbmm2+dPXu2WAUAi0IF9nvfeyitsu+991/CGPMtt3z1vffes/Bnzpy59dZ/1JrHHntcFgZOHnro+xYMAACaOXr0aFp/yr75zW+pBrb/d91197DncgR9m28DFNCZd4FT0r7X4K8VgA6SlsGvfe1/eI83DEunyjjt6wb9TSkGaJHMAakLFy4cOnS4zo4f/7AIB4six3HlyjMNpq2DH1UM+jbfhiagJ7oLLMKlI6PpBVgwoRg+++xzxYZ1Mvu36aQOSnGnyGnFA++++17deAcsEvkuf0CqPJCZWijXMFfyHZd6Lb3LNx6Cvs23QQnoshpuvgt85MiRW2/9x3SrjJu/AAtmdXU17feGXq7N1rBNX/va/7h48WKxISHEQFPdESaSX47X5I8++lM6Qktk0gGpMc+j7RRTP08yTv0T9G2+DUpAT3QXuKy2zRDQHUEOyhy1UshDn32XWbEBekIqkctDIM1bL1y4cPjwm2lPuE5kw4KZVH456ZAYNxOWRbmJbB6QEqkU0yaFT22EQ5tLYSLHhcDPPvvcyZMnrTGV/eIXvxhD6Qv6Nt+GI6DL10GxYZ3Ku8BWTd955/+SUPOKHgG9dOTKzFGrI0eOVL52R7UD7zLrEVML6LTBNlNxzpkhAPNmCvllhB0ZtlwWUzyWkJZHHLcsJnJcuHdXtjE0pkHf5ttwBPQUd4FVUx879q7+pAMeCOjlMtGoFXcMh0Fz4U2LZxhdLgtoVffbtz/DmOXSmUJ+GQw/d4EpBqTo+XSBSR23oYA2G7Y3g77Nt+EI6FnuAqdXFQJ6iYTCL2setfLC/8MfPvLYY4//5Cc/dS/LaH37QvB7KIOpSg6bnn56u66Q1OmVwWDBTCG/DERYR5huQMp9V25kYTFM6riygFZjeuDA61u2PDWexjTo23xDQK+BgO4IqSMyR60uXLhQ/FunYbQSukzqepmNIqtJ3r17t69saJVDSBnaa4lMIb+M8vDznj0vq2OsblJQ4TBXpmhPU6drpf2Rbd58Hy9UWRiTOq6hqKZ1cjmqIRH0bb6NZQpHs65CQHeBqUetUhDQPaU8EFK2ZgnVfP3AIplCfongQdXh6VWBQxfJFB5MV5aN+4GLYVLHNQin4NCgqYZE0Lf5NtiHCIMObrgLLBDQXaC5C5QW5gZlnDqaKrtfNDfAjz760yJcDQjo7jBpK27ry73fNCQOXSRTDEg1l18ZbesCmNRxDdVmcCgCumzDEdBi6rvACOguMF2jmxIuAFrc3qHS+vTT20MzvHnzfeVvmIWpOyK0HHh/iUwhvyob8jQkDl0kwR2ZA1Lnzp3TpldfffXs2bOKgfdLLp4pHFfnzbT01bW5wyDo23wblIAOtXalpbXwkSNH7l1/P2UIozVqswd8uXSTWQS0CS/basbwc985ffp0nQetpOsy2LHj+TfffEshwwsNh13dd58pWvFKVZ12iRHQC2bqAamU1K2yAY9idodJHVcplBU+LafDbk+Dvs23QQloEW46BAt3gcN1FoyivmCmGLUyQmstQz0Pm9Aqly0oNlg8E7XioQi7VkZAL5FJB6Qqaa7VYR5M6rhyA/rNb34rXZQNu/QFfZtvQxPQQldD5l1gBHSnCMU4Z9RKlLtMfP538Lz66qvN/WQugKUzUSvePPCRGtMAFslEA1KVhBhoVRfDpI6b3dG9JujbfBuggE5puAsMHWTSe08hvDbxAcKRoKviyJEj99//gNf73/zmtx555Cd8hrA75LfKzSFT497CgskfkFLIs2fPFgufklbRadUN8ybfcca5c+fKHwAeSZMa9G2+DVxAQ7+YaNQqBFZRDx9SkQ37xhNAx8lsxfMFNCV6iTQPSJlWlnMPHvy1Qopwp4jOz7JodlxAgQ8dOqwSWu4ODZWgb/MNAQ3dIn/UakO1zYAHQHeYqBU30vFLpHOX2bA2Zu4NdJagb/MNAQ2dI3PUasMqm0cJAXoNArovnDt3Ln0NTjDGMqDLBH2bb2MU0Ldu2Vf8g84zxagVAAwDBHS/OHny5JYtT33723e71775zW/t3PkidTh0maBv822MAvp3/+Gx4h8AAHQVE9ASYffe+y88HwwA8yDo23xDQAMAAADAGAn6Nt8Q0NBjmI0zTvA7AAC0QtC3+YaAhh6DK8cJfh8edIoAYCkEfZtvCGjoMbhynOD34YFPAWApBH2bbwho6DG4cpzg9+GBTwFgKQR9m28IaOgxuHKc4PfhgU8BYCkEfZtvCGjoMbhynOD34YFPAWApBH2bbwho6DG4cpzg9+GBTwFgKQR9m28IaOgxuHKc4PfhgU8BYCkEfZtvCGjoMbhynOD34YFPAWApBH2bbwho6DG4cpzg9+GBT/sL7/CGXhP0bb4NWUBfXb2+99ipJ/cf27zzjZsf3v3lh35u9n/e+4z/l9294+Cje99RyJUr14o9oSfQ6I4T/D488Gl/wXfDYLQdoaBv822AAvro6ZWH97x10/07f+8bT0gf65qQgN595IQkcqU9sOvw7dteU8gb7njqi5t3KPDhE+eLuKDbUHGPE/w+PPBpf8F3w2C0fgz6Nt+GI6AlkTc9c+ALd22/8Z5n9efA+2eKDZMg6SwBLRn9+U3bpKpfOHT86ur1Yht0DyrucYLfhwc+7S/4bhggoCe13gvolSvXJJdvuOOpmx/e/fCet46fu1RsmI3TF688uvedr/x4j2K+dcs+LRYboEtQcY8T/D488Gl/wXfDAAE9qfVYQF9dvb555xtfuGu7dPP8pi/rKE/uP6ajSKYzSbprqHtT/IMxgd+HByKsv+C7YYCAntT6KqAlmiVqJaAXI2olo/2ITOpYPMrzvVXPg/7fD77o/2U8Dzow8PvwOH7ukjwlh9qTJ27/+9cf9//+4MrR0yvFbtBhENDDAAE9qfVPQG9//X0bD178tAo1z6rWbcy7WAXz5PCJ8w/sOjz186DSVdNNhYflgt+Hh9wnH6nylMlTcqj1edx+/taH/t+7TDfe8+znN23TBaBqn5GLzoKAHgYI6EmtTwJaFegtj70ia2ui83RIuEu+qw1guGseyMsvHDqutlYN5yxiyEWYzWJXA4y/ugx+Hx7KeUlh1djyhdSwFPMUVbfqW4tEvamv/HiPIuGJlK6BgB4GCOhJrTcCWpWmNKuaw2J52ew9dkrNvFrrYhlmRi6W4mm9mUxbccXMTeGugd+HhypG5XnrfRjvYqktUA1crIVlg4AeBgjoSa0fAvrA+2ekVrt2W/b4uUs33b+zO5q+v0gzbVp/BaEUT7FqPqgBvvGeZ9WoL/cmBhj4fXhYd0jVtfK8WDUHpJ6loaXRGcLoAgjoYYCAntR6IKAf3fuO6sq2xqXaxWaVSAQUyzAhK8m08oXNcZRc0xGXMo0eDPw+POTTu3ccXEB3yJFGl1KnX7R0ENDDAAE9qXVdQN++7TXZwprY6ZAIuPnh3R1PZAcxCaXfpWSdvVZFcgrHLRj8PjCUkw/sOqxc1e/ic1V63T6e1dZEEZgUBPQwQEBPap0W0KoTVSMXC91m95ETX/nxHprkTNTUfXn9Sfzltnnyl+TUTffvZARrMeD34XF6/emUu3ccXKJPzaFf3LyDme5LAQE9DBDQk1p3BbQqRAnoYqEPPLr3ndu3vVYsQD2HT5xXU9edZ4C6lp6hgt+Hh/JQ/ZCOPJ2i7pASM9e51yNHHRWVlydL72VP3+EtU29KraFCLrefDJOCgJ7UOiqgdx85ofJZLPQHKX7p/mIBqtj++vsdHPmzkVF8Nz/w+/DooE/l0K/8eE9f7lv2haOnV1RG5Ou697Kn7/CWKf9vT97LrsDqaBVxQTdQsZWn5BrzlFnoCLmjB39jJ+jbfOuigLZRjZ5Oh5Du1wVXLMBnuXvHwVsee6WznlX/p8vJ6y/4fXh0OdM6fr31BTVk8vIX7tpuU8ynfi+7RJhk9Oc3bZNWe+HQcfyyRORTeUE+lUkiyzV2r8AsdIT8VsPgv2cU9G2+dU5Aq2Mkv3ZtpCofXV5S/3S4A8qWXowM2aAadx7bAr8Pj14M2+PQqVGmSS7bt2/k5bba4tMXr0irqTawt4PzJpyFIYdKCqtLaT6VF6bwqfxlkQzye0ZB3+ZbtwT0MNSnrk6dBRVEioqcmrRiodv0+gZI18Dvw6MvN9lw6KQorzZ/+nLJ+fU9dBRJMR1FMp0ezlxREfAei+rhtnL7hcF9zyjo23zrloC+e8fB7g9W5aCLVX21YmH09M6t0gdSCcUCTAt+Hx4SPT2aMq6WXgKiWIBG5FaJWgnoxYhayWg/Ip2c1jnN94wmIejbfOuQgJbLVZwGU5Z07fb9qmqFR/v5chJV7tIKxQJMzlz9/u677/3oR4/cd993H3jgwf37f1WsbQP83sCcfHrw4K/lyuee21Est4q6cOrIFQtQxfbX37fx4MXfNZVY9zHvYhXMhrJUF7yy9Em+Z5RN0Lf51iEBLQdM5/I9e15W/TuRHT/+YbHz3LDOWbEwVno9pNevwbZOMVe/b9267W//9pbUvv/9H6yurhabZwa/VzI/n95773fMjysrc3nYX6Jf0r9YgISr61/SlS1X+ki4q9CpuWRGxyzIm+ouSjrrd/EDkRJv/f2eUdC3+dYVAX14/Z2sxcKEfPWrf+9Naaa9/fZafbp37z6LYU585cd75noDpeMMYA6iFIN0Q7EAeczV748++tNQls0eeODBFjU0fg8cPb0in86pabzjjn82J549e7ZY1Sq6FOXQYUzWbBHJVmnW7jyiIAdx23ZqzJt38z2jqQj6Nt+6IqBnabG8Ec03E9CquOd039AYgIKcGpVnFaTF3xNsF/muj9XBEpmr3+vUs1mLGhq/p6hJVm60OEgpN6kGfumlXdu3P3Pffd/1EZB77/3O1q3btF5bL1++XIRug9ZPoe8ceP+MMqQjX8Bx7Pn7vjx23B1MafA9o6kJ+jbfOiGgZ3zUw1vQfHMBrf9z1dCjvR089YSc1rjy7ifvb/rkzDPF4rQwFWci5uf3ZvVs1qKGxu9Oi5XYwYO//tGPHsm8Z6iQ+/f/qi2HztjKDIlH976ja7uboxvqu97y2Cu65Ipl2Aj1NyRYO9U5VH9VZa1HT5AHfZtvnRDQ6grPcuMmVLs5lgpo2fw0tCqpIT0ZmYm8KZ8WC0tB6vnN//bJoZvW7NQTxcppGflUnHzm5/cc9WzWoobG70IN8433PDtjDSaPvPDCzltv/cfgrByT2t6+/ZlWBqS7M0q3RG7f9pqs402SOmw3P7x7bO3mFKinof5GNzPq7v58zyjo23xbvoCevdENFW6OBQEtm5+GHmEz/OXlvh4yVc9taOijp1d0iVKbb8ic/J6vns3uuuvbregt/C5mr74OHvx1WtOa3XvvdySL9+x5WVXxbbfdbiv37/+VAqsq/v73fxBGqRVGgYsYp2X5HftlI73Vl3HB3UdO6Nqj1q1jhe8ZtUfQt/m2fAE9+/3BtJ7NtLKAls1JQ4/t1uGSz7esns1m09At3sUeKvPw++rq6o9+9EhaSDOtLQ09cr/PqDjlPknh1C+bNt350ku7wsOClW/h0L7S08H7Cjnjmzpm7w/0F13Jup6LhT7Q01egLoa+POisOkQauuMdoaBv8235Avrzm7bNOBkrrWEz7fDhN4ud548uHZ1j9zthraCTvfGeZ5c2H6tOPZvNoKHlPp1XN2cNdoF5+F0S6oEHHgwlN99a0dAj9/sstxSkkuUCd0fDELJq4/vu++4LL+wslj/L8eMfusK2eN59971i2+SM9q6CxJYkV7HQHxi5qKRf2dL9McSgb/NtyQK6lSd1vG6ts69+9e/D9Lvvf/8Hb7/9TqUVkbbK8p+oWxRLHuS4/tEnR/8+6ubUZtDQvRu/WSStZ86M6tmsFQ09Wr/P0uxJ9frEDNnWrdtmdMTevfu8Dld9PssbSPslPlqhF6OAdfRlqHVh9HFg/oFuf88o6Nt8W7KA3rzzDVmxMC1eTVeaNaJqj9MKvcEsToVXHS2d/cQTW2YZ8DCknqWhi4Xhssyxdkln/zMfDa2z+8Jd2xmELjMPv083c6Ns9977nSLGaRmt37847bPdKysrPjtOYretT0WePHly06Y7PdqpBzvkylE92H383KUvP/TzTr2lYSLkKan/6S7F4dHTOwmiy98zCvo235YsoFt5LNqq1ErzIaizZ8+Gp1IqzaZBl0e/ZvzkiqpsKYxiYbgs7U6Nzdw4/1KxeO3UJ2//ddTNqU2roUc4dpXDPPx+/PiH0720ITUV+VYma43Q70dPr9x4z7PFwiSo8vSZG/Jgu998VWXuNbMin/rDK+MZ1ByG+pT611kweKFSqXzo6XRQXYoqd8t8u0A9Qd/m2zIFtK6DG+54qliYAatPze6777uqwbdvf0b/U/Vcfgy8bP4QYeXo14wt8dTDOT1iOQ/opPOe56yh5cGRP8VfyZz8nq+hN2260z7Rn65sSz2LEfp96luuXnkq/5vv3amitndumO9kEsdabB5aVpXuAl1+VyTFhkkYz9NpcqJcWSz0me2vv3/LY68UC6NEekm1UH/vJIjOnkLQt/m2TAF94P0z6k4VCzNglamZqmBbuXfvvunUs9Aufq/QzWOeDhX+YX9gSWXj85u2LfrGaPmpwVRDp+vLdnprEXISbrzn2aN8oC6hXb+r2Kaqd0MNra0SYUVoJWZlxUYog3pWPFu3znQLaGx+n+7eoPLcXdMwc0M18xNPbGm4JXjbbberQrYKvExapaf1dj4juSU4sMkqYxiEamAY98GWdpu6kaBv822ZArqtYQCvdstVqhrOfPW8urrqD7voN330WzZjA9zxSfSzs5wRgosHPjn8Z1EZm4b+t2tNb+SQvfN361FMxmBGdNqiRb9LPaughZHLZg1dOVq5ffszlSr80Ud/WqyanFH5fTp9qfrTxx0aslrCOvPGgmR0nQqX3y2MrpbpJnJM10PoFwN7eL2VVw70lONtfM+oI3Sw6AV9m2/LFNBt9ai8wnUzQbzh8JWZq2cbu/KJH1rjLzH1lVPTzY5Xiyy6spY+Nio19PHvfPLe/4wrg001Aj3mSryStvxu6tlMxVaFt9hQX5BzBHHYd2oNPSq/Tze08cILOy2TleF1b2veunWb+yLT1B0qdv4sPldEtXSxahIGP6IxyHlHy5kl2AHmdeLXP/rkwstrExpPPLTWYprpv9acf+m3j+a3SgevzKBv822ZArqtJzm8qk1t06Y77Rahfl96aZcs3eoW1LNZKpefeGLLffd9d0b1LKZ+KKcvfOGu7Yub23Tl3U+O/OWadDYqNXSzzfAujhvueGowd0VnpxW/p+rZLGhoF2eppe8VVnnXLoqnWF6nUnlPp6FH5Xd1FaZ41sdfc6TKtlj1WaZQz2aVd/+k0X0SyMmTJ4u12eii1aVbLAyRmZpX1agSUs138KY21dWK3OfaTYK01029fR/f1LSvOP/t2ifnnv/k/U3RNWWTp84807qS7lpHKOjbfFumgJ6umi7j9WzZVMP6zdzyXI5K9Ww2+5BzYNj19ULPzuc9qyKeTkNPq56Ntq7bAdCK36WDQ+kzU8e1CPHJJyqqYavMBbSKqq90DV03bi2bTkOPxO/TTWr3ORXKc9WoxdqE/ft/5fk/hVV+hEV+tK1Wk0/KgOe1z3TDU3VpqDDnZFPdAxzhK3FarnlW9m3whH3ZjvzlmuBuD5U7dQm60xEK+jbflimgWxm7El7JylR9qzK1qXipei43wA3q2Wz2N8gGfvcfHiv+DY7FTVAJTw2mGvrCy79d32CzqWfBy+yc2f1eqYxlKsLeg1Up9rHG1FId/MQTW3z9j370yNat2+rUs9kUGnokfp/u2W7XsnJEsSpBrqx7Db+q2Zde2iX9LdOf8OSJmy6A8rQQV+26WopVkzDgB7tnet7u2NdjnTknkyybnIE9Gbkhbbatq+fXRpSDF/Lt6N9/crW1t1J2qjoN+jbfhiag1XZqjeprVcSzqOdUfLfFgAX04iYUnn8plmrX0Nc/ipvKNrN6FuN5B9aGzOj3OvUs8+cI09kdEmH33fddV8YqpOk0D9dwmTaphh6J36c7TXdK5avr6iZvVH6+Wysr+0uVEzlcl6dXQiaLq7UWy6x3/PNv5c1uU9G1CQBzZaa+UMrlI2s9lpD/bm//9Zq2NmsYn37zv60NYLdBpzpCQd/m2zIF9Oc3bVMmFgsz4DWsTPV4qEk7op7FgAX0QsdyKjW0PQMR1gdrQz2Ltl6/OABm8XuDelYpLgIlykyl1eYGpG8xSweqRV2JrrOJNPRI/D7FyNDJkyctP1PHOfJapSCuezpQVF4biiT1teGPElbO8WhmcffNFsusY3uh2pyrTcVQHVemtUen1GiW+0Va8+G//vYWbkCCW1sre1NTzb0p053vGQV9m29DG4GW3Xbb7f5io3JF7BMrveYNNif1LAYsoOc+PfTKu2v62B9lKGvoDa0l9SwWOuG720zt9wb1LJM+LsJ9KqBdPRsq4LZev2mHOZ3IkWn5Gnokfp+iVTt48NeWmZXT3lSdem67ycXu0L1796lalvnTh9rkX0tJrfxWO3+6tEGO1zHUB7tnHZkKNedcbSqurl7XOa7084N8E9HOTZKPDlXo4BMPZT0aqDAnfxj3lV2YuL9apjv39IK+zbcBCmiZamdVtd6aqpX1O33NzxjNTz2LAQvo1m4zVeLzno/+/ZQauj31LFRxt/IFzQEwnd/TWRl1VgRdn45VOStA5VfFPFXPKrmVI50bWqb2Gonfp+gUuYqtnABdOX/DQ4ZHSO32oJBT0vVm5d6Oa/cpXmY3yB6RfCcPFgvTESrPudq0DOwV13W08Mrka6eqZ26srtfb2ip5fXrrmkq2+Rv6o+ZSK326s9rfsK9MilzrZ2O6983Pg6Bv822ZArqFi2Mdr14rzd6nsbq6Kg0txaw/Z8+eNZUcNPRc1XN3rpV50FZfqILw1GCqoVXsfX2DtaqejQH3hSZiCr+rMJY7rmVzIZWikvt2zXeep1bPZqkQb2AMfp/Ip/v3/0qe8tHi++77rhZDZlbOq/EZF2GkWdeGrXdlnJrfPxQrKysvvbTLR0lUvevQirY8zaOB4Tl08843ZMXCdIT6c642LVLP0tDFwkBpRzPUPRJ6Zn3U4NSjcb3b8U/vJp14KG4ye/uvf/s1hmlpSwTOSNC3+bZMAd3WfX+vXsvmb6NT06v21YY9VM+6VnYNPVf1LAY52uHMUUCX7x+5hlYfOmwq2xzUs0BAG1P4vVIYlU3lMTxhpuIpkVRZTmdUz7LKp9nKIKBT6p7alC/SN2ZUTsbw2Rr2xiQ3F9CVtynSuT0S02GrmQ5XhMhgeA5tQZGEKnSuNi3DHpAyWpjhsLIvZrjbkb9ck78ytadhk0xbbYi6cvjZbebmtSMP8gZ9m2/LFNC6OHSJFAszkNaeqlVXV1ft9l+qnlXzao0NjYSX3GmlGua5qmex+8iJmx/eXSwMDtVlM826a+bDf43lVmX+wstrXeSwPth81LNAQBtT+H2i9wGrqKrTu3XrtvTtZuWJtuoS+yYvyCdPnsx/prDyDQ9lxuD3fJ/6h1qDqWpNh4GDRDbzyRhhqoZPp6mc+JEK6Lqjp2E2ZGAObWeWUahFp7BjXy++Zldhj67NE/ApuTMw33mDHWDWEUaJ44bXbsjkC3H1w8Id8po/iO9TnJvfaagdTWdPS0cGFoO+zbdlCuiH97y16ZmaJ0AnIa091WTayr179wX1bCMT7777ngcuj2Zl3smdgrZOtpu0PwKtjm/61GBZQ29oqqznBgLamMLv/saG6UwFvPIevTR05eOAlTqsbP5oRDNj8Hu+T1W1vvTSLuW8jzHbFA6tL0KsUzlUfOunn/teXV21kWytkXrWoq30p1ZSS0eXdRns2fOyT+HQ7jq0bKKvEg7Moe28KCZUpBPZO3+XNTVWFbtV6TMw4Nd4i+m+Z/QZzj3/GdeUbUP52zCA7Xbyh0XgaenC94yCvs23ZQrotgZlvXo1Ux1abEjUs69PG1TVuenIk03nKBbapq3h9m7Schnwec/pjOeG2Vplm6d6VqX2e9+YY/w9Yjq/193639DCuzheeGHnhj3eOimWmmRZGm0dI/H7FJ0iH0X2RwNT6txt7+yvxGVxsPKTgj4jyIdOJmJgArqd1xqEujTfVGlfm2TE9IMJJtuUGeprvI0W+kI+nNxg6sbUseEAtpmcPhtd6AgFfZtvyxTQbU1j8urVzbRyqp59pX71/957v7N377601TT1rE3Fctt0ZLL8nGhrOvsaDU8NZmroeapn0ZG7Tl1gOr9fvnw5f3KFm8pyWmCtIKvMBg19+PCbCpm+H7ruXr+ZAocR0zpG4vcpaip/k0bla+zCezbM1KupfLmKIZ+mVbeb1eEp/gKQzEk4KcObR9vO191CdZpvVvGunl+bv5HW4akdXn/3sL3hIWesup5hvw161r6QGk2fJ9Ns555fc9mFl4tvKaiR/ejQWgz5I1YWflq60BEK+jbflimgxRSjHWW8ek3tvuSLZWbp7b+Ugwd/nb4TuljbKldXr99wx1Mz3Y7pNq19GiqoZzPX0OoTh01la+hSt8SsH/oaEFP7XVJ4Ug2dDjFqd59ZKynmCljq2Z8mdH1W98Z3Wb56FiPx+xSdIp8XV3kHb2VlxTPcTFWxP2UorfzEE1tUXauf89JLu7w7pP5PWUOXp2e4c8uviN6Q4fWI2vkyRahR882+UbfhoymyY19fP9JMDPU13sasfSEJ4pDn8zObSz0tXegIBX2bb0sW0K1MbPDqdUNL7zCq4dy+/Zny7d1ic6sM+wlCoR6k+pHFwtRUqmcze2pwwz7x/NWz2P76+7c89kqxMG5m8fukGjo8saDy61pZSmvv3n2SX74mnZVR+RCbbCL1LEbi9ynqZIldz9XK9wymz4DKR57tlVM1/I0oksvuUFl5eFsu9go83IjIYXjVcjt3AkOlmm82Epk58Dkzw74jNGtfqPLrJ81mj342PzVYae/9z+KgU9GFjlDQt/m2ZAHdSufjufVnRzJNDa2q+IMHf63/lZPzikhbpZ07ax2mBW3RoJ4zbSHqWbTTWxgEM/o9R0Pfeus/uorSn1RDSzF7sNQUp8/fUHkPW80mVc9iJH6f7nFn92Plo5zpo9v+ng2fOV02jyR9ZCU88C20xjbJm8WqSRjeg92t3NGN9Wq+zXYrfwoG/FDvrH2hnPsAburz2N0DI+fZwdTe+btix6noQkco6Nt8W7KAbuFR0xmQkvba2a3Y1ipdeM50rrRwd3uiAl+2Raln0dp8lf4zu9+bNbR6uRbG+7rS0H73v/KFHtJSPvaczuhIbQr1LEbi9+nGZf3thMpwz/8U86C6Q7ZVTqx0jZvN1vDpH+XHB4VfFXadTMrwHuxGQA+GWV0ZniCUxtWaYG//dbG1/NTQ+5t+u6+Hr3um8M1ZnyNcuh+Dvs23JQtoscRnMBcjoNt5tVDnueGOp9QdKhamYIpbTm4LVM9i1jMdFrPnRp2GDqrI1ZJPhNWOHtgtVVqKIWyVTaeexUj8Pt2jdfKFC+LKr9Jcvnz5rru+LUfbYt3dAzf3/qZNd8pl3mty5EQ/YnludA7De7Bbjpv0vewVhNo130xAh5V11gYI6FpcHMvso4Nl/u1aMd/m4vp9GAXzllT/bd/LR4o1AWluC2A2Gwjo6ZllIlo663Eis90XI6CHN85RyazjcyrMaa833xarnnmCMNDKuGxZQ1eOKR4+/Gb66oZ0YoDbbbfd7vM3RNDQ6eNrEzEqv+tMdb7FQjY+3UJ1cmUmS/L6F7ybX40iu+/Tr3Yr2soOj8dQ+eqPDVFfSD2iYmEodGIEOqysszYYsICetS+UTmWuE9Dig2+vBbD5G/ov2W3Y40ZH/75YLBOmecwGAnp6rq5eV7Gf7lq5o+pVRzlm9Xu5Aa58inwWZjm7fjHra3fEFBp6sepZPDDol49OQQt+XyfV0Kl6lho+ePDXxcJnqXu9hlRyqqH9NWph/USMyu+bd74hKxayUaXqj/Q1vOPZaHg1iplPg67EZz/Lpnh8UDy5/9itW7K+ntMjENCDYVZXmjI2O/HQ2hp7S52ZS2obaZbaVuPr6L8NYNtHUqSVfUc10Mbprb+N32X3tCCgZ2LqhzkaZk82mz2PojY7PKFf+SGAWRjecyp1qLSrzBcLUzORhl64ehZtvvF6ELTj93VMQwf1LNWrghlmBSikvwC40oJW3rt33yzqWYzK71M/F59OzPDB5krCnYGyNbzX+ezZs/6K0ile/2zM+paDTtLOpJRQzebbYgX0dHON+sKsAlpy2bPaXhqYrjnyl+uBPln78I09u68wFw+svRBacvno36+tOfxnxfyNtEX2Men0mSWLfwYQ0DNxdfX6FzfvmOIxu7fffme6QWifKHny5El/xdKjj/5UDbOtbwWVcJ3XGIafjXaq70wNvQz1POwqe2rmNJdUhTF9/Zn6ulJdMmmmnFI/o2JOGaHfp26/3WVf/ewrU8qo7pUr0w99axctysUNc5rlU/d+mK6Tj1qcG4b4Yv5OdPNCRV1nM9Ni172DzFqp+iRmmSSyWtXzL/12jczmPYvK919JPVsASWqbJ23mr3x+5+9+u3K2trgLtWvQt/nWCQEtWnmfXdcY/NvrAm3dzd9YQy9DPQvmb1TSmt8TbDTapdV01paGHqHfp35n39nk+6+33vqP6Zz12ZE37Y6ETGp76siH+krvTjxvE+rqOpuZ4b3GO2XWvtDVDz+T2+eeX2tV09doSDT7d9eloVOVLLNZ0drFRqPdpKfF5SOfWXmh6V7ThnShIxT0bb51RUCLgT0TrcvixnueHd4gRwMrLb6UsEFDL0k9i8G/jnA62vT7p2w4RzbTpnvCLDBCv6vxVhNeLEzI8eMf+rPd+jPFNwIrOXnyZHrnYZZob92y78n9x4qFAdHOjMFQ3+bbRLvPzLCnR7bQF0oHiW3qRTosLUvf35y+tcNfSxfeLatFI51gLeVt3wmeli50hIK+zbcOCeiBPec+zrcFtzkEUqmhl6eeB3mTpC1aH/qSCPN5rlPbhrMIchit39Upmnr62cGDv3YNLXvuuR0zzo6TH9ProfJNeZmop6dTG+QbCdvRIqmWmsiMsLLOZqYTw+1zo4XuQfhwr81Qfy95P7Q9IyjK3/22QeV01oeuChPKYVKH2ujZ6EJHKOjbfOuQgBaDEZ2jfdmZWtwv3LW9tcHIoKGXp57FdO/2Ggkt+32dGTV0K+pZjNbvMzZs7777nr+UQ6b/dWPGWq+tdQ9w6zII86RnHNIe8MhlO9NJg/DKNyOsrLOZGdgt60ALfaGgdE0Ba6V1kI785VrzKvRb/kKK1phcNsH95n9bm+ZhgVMJLjNdPgNd6AgFfZtv3RLQKv833vNs38cGJCNUtkcrtlqeMOoa2t7FsyRUwlXOiwWoYh4ThdMJtROZlHcr6nnMflc9ptp4llcBrKyspI+ByjZtunPPnpfDW6J9WnNYL6EcZvJIZ884qVqNi05q6pH17qN+7CwuW0NV7nQa2ggr62w2dHEO8jFQp6W+0Gc/d/LBt9dWShlLBNssZ1H3CTMbn7764dr0D/0aIbBFOBtd6AgFfZtv3RLQYu+xU+p49bpgLPHbil1AvlMlPqQmanhnNA/mlEtTaGip5+neDRzA77NPX7EXDpbvJEgZP/fcjoMHfy1PuX8ljt9++x2Ff+KJLZW7BIU9BZuG/mD3sCc2OMN+gtBo4d5XeXQ5fLW7/Phgajbq7IT3eJQDTI46tF34nlHQt/nWOQEtev2I9HTfIBgYA3vIfeo3EoyNOfl9Ig3dlnoW+F20MoPl8uXLWz/9TuEUdu+932nlbR7qC6lH1OvRmQ0ZyZT9wXeERDta4qNDUSIf/86asDbCfIxg/tZnUR6oPr212DQDHfmeUdC3+dZFAS16KkOH+nakKRjMzNExNLotMie/Z2roFtUzfjdmeR1HYGVlZc+el8OkjgaTxyW723KoGOrLN1Lm8UqcCiofNLRnVMLKOpuNMbwYZ+rvGUXOPR8zX8r48pHayRupnXp0bdp0WWf7Gzlm4+ZufM8o6Nt866iAFr2bCHHg/TNqaWhxDeXGTfdP/6R8d+jddbhc5ud3aWifLFtpLapngd+d1p/tliv37t333HM7HnjgwdSnt912+333fVei+YUXdrboSkP9OvXuioVBM/dL99qpKKfMbEZs+ascZTv8Z+sRTclgGpcNUR9+1hntRvoZwtlN+tvHsGdAYqkjE9mDvs237gpoZat6J8v/rlIeuspVpMc8XbLMAB7AGvAD+/Njfn5Pv6MRrF31jN9Tjp5ekfScXzvn9xYkrItVc6ATX+lbCHOZH7x6fu2W/akn1iy8HtjtyPoHoj/817i+bLO9+2wk87xFm7PIwkugp7Z0BshsdOeOfdC3+dZdAS1WrlyTKu3+OJB1iNvpKQ6LXs9UG+0LgGdnfn6v1NC33XZ7i+oZv5eZa55s2nSn+XF+AnoMU2YddXXaf/j12NejkKq0a6fWHiwrvxYttcN/Nsu7z+Zydl2lxQlUa1w8kHV/oMHamPfsdGdKVdC3+dZpAS1UWtRHaf31WC2irrAuccae62j9/u9iOHzivDpF8xt1Gzzz8/vq6ur27c/4Wxp+9KNHWvlet4Hf63hgbt8zf+mlXfLjAw88WCy3zQBuhU1K+7dQyt+0qrQ23mvWzNjuDn1+hu8ZVbB6fsrpHLoAZn7nRorqWJ1aR95ZHPRtvnVdQBuqu9UedySvU1Qvy2huG1DmqINxoFdvvGdCzuzg9+HRx4fwdh85obZjbFW0zveLm3cM7zE7lU2d16hK6Fw6DJLCdfNwyvbe/1wbum6bTnWEgr7Nt34IaPHCoeOdmiYhNS99MJKZWDOivFKt15cpLubZYbxCZLng94EhWdaj51KEFKRaDXm2WB4Tg5yJNKqpOIYK3YzfM6rl366tfbL7w39dk8jhVXda88G31178vDqX+lBFslPfMwr6Nt96I6CFPcvShfkAakKUkpE8ktIK9kae7o9H2hhkF16sMwzw+8DoUaeoX/23eaBLul+3gJqRK1WZjO1mghheX6hrHaGgb/OtTwJaqE7UlbREGW2T+mVjrpenQ93Njo/ZW7+IMch2we8DwwYyOq7MrEc0cp/q9OWpYqH/qOnvwvDZUhhSBaUWoWuv2A/6Nt96JqANXUkqS2qVFzkGvJSDDgyVmc7OGleHWM4d593eeYPfB4Z1ijr7fiTrEUnoF8sjZjCic2CdgUnRJa0SVyz0nA4+ShH0bb71UkAbdknd/PDueffMjp+7dMtjr6j0jrb72y5de2+JxJP8O6onu5cCfh8S6gt1M/fsMqNHZKi43XjPs33PDV1s3E8YRl+omx2hoG/zrccC2th95IT8IXtg1+F2C9jR0ys2OvWFu7bzTbJ2OfD+GbmsC2P5umZUNePfxYDfB4ZqyJsf3t0dfWY3OooFWEfFTT7q4M2ffNRVo6ja1Kle+1FIUHWh/g8EfZtvvRfQhprDu3cc1OUlsasKdJaOmry76ZkD6rXL9KeDzh4Gdhd4icVJ14z69LpmuNW7SPD7wNh95IS6IkuvJ4+fu6SLqstT7ZeI1Kc0aLHQNzbvfENWLIwbCRvVXcVCD5Gg6tSzg07Qt/k2EAHtqBpVHaqL7Pe+8YS63Sp4T+4/psq9od924P0zql8UUnvdcMdTqoXlYxrXxSDXKMOV85I1xar5o4vk1i37JKGYk7Ms8PuQUG25eG866pLJrV+4a/vSRXyX6akM7bX0nwcPzO17RvNGwqyzd4eCvs23oQloR4p595ETqjJUt6pyl57+3X94rNJuun+niqhCqlll5txSUM5L1qgBlsQpVs0HtbUqw2pre/c9iEGC34eEeVP17by96citm545gFsz6d1EiAPvn1Hb3fdJC62jIta7C15iTPV8Z10Z9G2+DVZAN6AKd2FVPOSjBliuufnh3eqqtusgNbSqcVSAFT83ebsGfh8SynCb/KbML1bNgZUr1zbvfEMHenjPWwisTJRRKmV9GadXVXATnwWtol9+FEc7/z2joG/zDQEN3UJdVRssVOt4946Ds7xu9vCJ8w/sOvzFzTs+v2mbeu0SarS1nQW/DwbltnStXKmui/R0ixpIbbDd01fkEtDcMJwU5Vgvnp1V8Vc6aabrkB9Vv/Uif3qR1KBv8w0BDR1F3VbJIFWjJoNsjk1zt1vVrs3bMSmmcisptpR5mTA1+H0YSEbLcfKg/CiPyKdTP1ii6vrRve/c/PDuG+54yuYhIJ2nRn5RHnZ5Hq18/eUuve+ym6g0qVjNMtCwAFRyVZN3vyoO+jbfENDQdexGvOTRV9Y/ZBOmsKemsqpWViFbnwwAiwe/Dwa1oFJsN97zrOpe6xSpR9Sgp+VEBZDmVo/I9tIf9ZGKzTAzylsVqw72Q+RoGbeMclANqYqxs/cTVIQl8afuNi+SoG/zDQENPUbiqfgHY4Ii3FPkNesUqeGXMk57QanJvwogza0eUS8a4D7ywqHj6nl2pxxJzcvp8nixDBnY/YRNfM9oNoK+zTcENPQYtbXFPxgTFOHhQVlePDYNQEq6WF4eNlrZPFML6uB7RjMS9G2+IaChx9DojpMvd/JzVjALlOWlINX1lfXvCi1LRqsgqzjLaJRnYTffM5qBoG/zDQENPYZGd5wgoIcHZXmJHF7/POeCi9VSDjpgjvI9o2kJ+jbfxiigb7znWebVDQMa3XHSu09CwIZQlpeOpI8U2M0P7563Ajt+7pKKcEdmjwwMZakyVlp2YaOEks59/55R0Lf5NkYBTZd3MNDojhM1D/2trKESynJH2H3khBSY7IFdh9tV0kdPrzy85y21vxJbdIDniqrHG/meUTZB3+YbAhp6DI3uOLl922s8rT8wKMudQtL57h0HJaMldlXcZhkqVmsrJSeZZZKOxncxSNHyPaNMgr7NNwQ09Bga3XGiWltWLMAgoCx3k+PrX7GRCPu9bzxhb1uXGlMD2jDieOD9MxJYCqm9brjjKTW4UnJMm1wKcpM6P3zPqJmgb/MNAQ09hkZ3nCCghwdlueNIitn3PqXG1IZKT8tllXbT/TslsBRS0m0wGmsA2F2FG/meUYmgb/MNAQ09RpV18Q/GxJP7j6kBKBZgEFCW+4uk1cIeWYPZkbNUhUpASwtJGXvPJ5jcqgBj+J5R0Lf5hoCGHqNCXvyDMYGAHh6U5f6CgB4Go/Vj0Lf5hoCGHkOjO052Hzlx88O7iwUYBJTl/oKAHgYI6EkNAQ09hkZ3nKj8qhQXCzAIKMv9BQE9DL64ecdSPsKydIK+zTcENPQYGt1xcuD9Mzfdv7NYgEFAWe4voxVeA2O00ijo23wbo4C+la8wDAUa3XFy/NylL9y1vViAQUBZ7i+MSQ0DBPSkhoCGHkOjO04Q0MODstxfENDDwN7uXCyMiaBv8w0BDT2GRne04PqBgUP7CwJ6GIxWGgV9m28IaOgxNLqjBdcPDBzaXxDQwwABPakhoKHH0OiOls9v2nb64pViAfoPZbm/jPbW/8C4e8fBB3YdLhbGRNC3+YaAhh5DoztaeHPWwKAs9xea1GGweecbsmJhTAR9m28IaOgxNLqj5cZ7nh3212XHBmW5v9CkDgME9KSGgIYeQ6M7Wph2OTAoy/2FJnUYyIlyZbEwJoK+zTcENPQYGt3RgoAeGJTl/kKTOgwQ0JPaGAX0aO9TDA8a3dFCmz0wKMv9hSZ1GGx//f1bHnulWBgTQd/mGwIaegyN7mhBQA8MynJ/oUkdBnuPnfryQz8vFsZE0Lf5hoCGHkOjO1pG+8aloUJZ7i80qcMAAT2pIaChx9DojhZK8cCgLPcXCuMwOPD+mZvu31ksjImgb/NtjAL64T1vyYoF6DM0uqPlgV2H795xsFiA/kNZ7i8UxmFw/NylL9y1vVgYE0Hf5tsYBTQMBhrd0TLaB8aHCmW5v1AYhwECelJDQEOPodEdLVdXr/Mp7yGBAusvCOhhsHLl2g13PFUsjImgb/MNAQ09BgENALBcjp+7dPjE+WIB+sw4m9Sgb/MNAQ09BgENAADQCgjoiQwBDT0GAQ0AANAKN9zx1MqVa8XCaAj6Nt8Q0NBjeJsKAABAK3zhru3Hz10qFkZD0Lf5hoAGAAAAGDsI6IkMAQ0AAAAwdh7Ydfjq6vViYTQEfZtvCGgAAAAAGCNB3+YbAhoAAAAAxkjQt/mGgAYAAACAMRL0bb4hoAEAAABgjAR9m2+LE9DXr18/nVCsXQZKyTvvvHPo0OFr10b3vsNmOpUzSszZs2eLBQAAAIC2Cfo23xYnoH/5y71/+7e3uN1yy1f37/9VsW2BhGRMkQYJu3379g1PfM+eM+2i9Hzta//j4sWLxXINi3RHONbq6ur3vvfQXXfdvWEiAQD6y3LHvADmStC3+bZQAe16SEJEyiNHHrXLmTNnbr31H5999jn9nzoNmcKuX7SSM+2Smc+LdEc4lgT07bffMbyLYVJ0wdiNC+4YdIql+8Vqkoce+n6x3BJWWaU9/AsXLpS70HPSfHM6qYXhV0XmoMPTT2+3IZVbbvnqe++9V6wFGBBB3+bbcgS0LaYFUjXgnj0vP/bY47/4xS+sYJ88efLNN6u/M6fyf/z4h/bfdzx48Ne2RiiA2oxz585t3botXX/06NH0oDqE6pErV66kEQpfVF3jkXuqtmx5SpEcOPB62jI1JEO7KBk7d76oGCzYE088mR6uC1TmjNewOWeXNtLlfDPKXhZ1zkovmLpjTeQOceTIEcWg9XKBdjEvlBOg3V955ZcW7MSJ36zvWn0srUxd2XCClRk1AF599VWpGb9x8eijPy02LA9dfhPdKAgBwu49pUW/TJ0h2nEBArryKFZ7qFA3u34K5nRSi0HZ4peEbMPbjGoXFOzZZ59Tb0QV1zCKBkAg6Nt8W5qAThWb/qtC/OY3v3Xvvf+i4qr6TkVU4e2PAlixt9Ju9ZeNlfqO3/723VbOPcAPf/iItR9pTWfVgdaEKkDKxo9lw4qKyv4okT/5yU8tVZLaklAWrQ66efN9pq4akqFFxWDnpQAKpv8Ww9LnSKTU5YxoODut9LNzb5bzzeL0eFIvNzjLL5i6Y2l9vjuEvKyVUrf33/+A1t955/+SXC4nwNJv6dTK5mMpTk9zwwlqZUi87dJ37LKRVtN/O9MunF2oasyh6ZpACBB27yPt+mXqDLFDp4W6Fcoj0OUUWpV+6dKlZtdPwZxOagFMcZsxZOwAigZAmaBv821pAloVnC2G+sgrR7UBXukrsNoDC6PW7p//+ZumadIdrcY0rab/2tfajxTbRVGZeCrWrrc3fiwl4Otf/4b+pysV1Xe/e78lPpxIczJ8fRqbNdi+qQvU5Uzz2T344Pfsf1o1V+ZbiCdtAuucleZz3bFEpjvSI1qYDa8Wke4lyu2H9rVjNZ9gXeL7jmevLaauF5OOxzcP1dfdVQjrm28U6BDpfS1f9ABh99OnTytMepMhLHaTFv1SmZ8WONw1KkcbCoWjkOU7PKIuDYbFr11ef/1gWiqFTlB1l6+xCtZKmXtWKD1+qaQnngawNNhiZTrrTqr7hMtAOSOHej6U3Sf/pq6XhStBMWx4l7jZ13WXUCjjAHMl6Nt8W6iAVtn74Q8fUfGwsUmr4IJG8brP16vC+sEPHn7xxZ9bk6BawERMg7hRmayr4BSbT+qSWLQibQe1qBSPH0hhtm9/xqsYI6iozGSklVc3q+DKnMk8u7TFqsy3Oi/rf52zco4lMt0RGg9FmAroOl80H0v4vpknGCLsNc3nogxXhuSPxzdsSmMLdxUs2329rjq18Vqj/1pZvlEgD7rf7Yipj7SmvLs2+S69cF+LfqnMEAsc7ho1ROsXv2HJs5DaJfMCMEdrjbUdMi9rIpxyWtjd9RbGY6hMoYWxmJvTGU6qFyhbdOJKuV3MKZXuU3OglVrUepUv5YAv2pWQlib91ybLOssiuaM5D+suoVDGoQF1OdTJDxTbIJugb/NtoQLayp7K0iOP/MQ7/VaqvTb06skLoapOFcJ3333PBoa90NqOqVXqrUoUuYnF8i7pvpZmFfud6zOYfWWqojKToWC9qIJDzmSeXWjAyvlW52X9r3NWms/Nx8pxhzXAtlfI/3ICbCDEKn3FUHcs4ftmnmBIfK9JszQQcthCWuYoN+rG4+s2lf1VVj/p/2Y3eTE0X3iqPP7yFeW7KFVWC9mmbtK6XyrzU3niN23qog3ry6QJEHVpaEi2o31TMecJds+mfqy7M5ZeEinpETc8qc5iKVc11XybMT3Z4PqGoqF8VswWibLR7hKvhyoo+7rhEkq9CXXY5apsT809ko8yf+Rvlwr6Nt+WNoXD2VB5KIB8eeXKFa1XMK20WtV2VAksul2nT/sVYDva/wbSQ9tRbM6cJ0ZIS5mgVKVjiS9XIjnJUDC/skNl0UE8ZzLPzkpy2maHfPMIbWvZy7Y+pbIVFOFY+e5QSG0yS2vnkACr6JXsAwdeP3nyZMOxhO+beYLljOovllGV5xIay/SsG3KjblOIzb0Q1stZdvO9wU1ptHJZ5QUWdrdd7Cja1P12vXW/NOSnURfthhVdOFDmBRAWDSXSKthwUI/TSmi4MxYC20FDzCJNzIYn1WWUeKuWZXW3GdOTDa4Pi76joq28S2zBjAZfi5CG8iUHldgI9JEjR5R7urb1P0x8yiHktnlqVPkf9G2+LV9AN5RelUMVyBde2GmLKnK6RFR5WWDb0QtkSiicdaSH1v+vf/0bqgIqE5nKo8pKZMNkKIYeCWjPmcyzC5Wj4/mWZrVIw9c5K83nhmPlu0MthyJJJbUREpBG2Hws4ftmnmBdRvWRhqxOy4tIL/iG3KjbZLGlZl4IR3Ea3JT+r1wpGnZPg3WW1v3SnJ+iLtq6iq7uDk9dGkL8oawZvtJ29K1pnDoRxaN62O+MhRSGfSvTWXdSPUKnUL7N6GednmBwfVi0kMoWZb7yrXyXWGFyfC0sDamFSw4aqCzylvNhQrlc5ivNQSc3ertU85MJlS+26h1B3+bb8gW0FULrDev/7t27PZguCxXIb3/7bivbiuGb3/yW30K1HRXYfCYH+wMNoXA6ilAlWReBVJTC2+52LItN5TatTH/2s6ctch3a5a+Kuv6/8cah9VC5ybC9Oiug63Im8+zS1q4y3yyeSi/XOSu9YOqOJTLdYesV0mbhq6h7RRASkKZZ6dQlUXcs4ftmnmBIfK+xc6n0nTWHlU1yQ27UbbLYyncVwlGc9Mox0pi1l7aqdVGSKg9d3l27SBCUb091k9b90pyfoi7aNH7HGvvKOzzNF4DHbzEER/ixzL+e2pBU+T29MxZSaAe1mOvSWXlSfcRzteGqCK6vuxIUgwpI+S5xpq+FpaHyziFsiOWz561QfmpNmFBul7easA1fLObesYtBm7SXFIKCWeO4doz1YNqk9jR9sZVt6hdB3+bb8gW0kPs3b/6uHBDc4/62NXaVeNdWnDt3Lt1x+/ZnbH0onI49VmzhZfK3H0sohVrp9UiI/Oc/f8nWK1W+3gLnJEMXtJ9IB6vghpzJObu0tavLtzov1zkrvWDqjmWLme5Qw6nzUlEPFUFIQBrho4/+VFLYL7nysdJ9c04wJL7X2GVcWaitqHpRSs+6ITfqNlls5UyrW1/XzNt/7aVO+P79+70rLtIA5d1tl7rbU12jdb8056eoi7ayoktjm+gC8PjDoqPdVVQfe+yJtI0ISTVcMoYU2kEt5rp0drD2ng7PxoarIri+fCWYdK67S5zpa2Fp8K0wESH3wiVq5UIlIhUh6qvUvVhMpN7R/8onE9LLxo6Ylrt+EfRtvi1OQG/IhQsXppi+I6bYsbKDq8srXEZCV4YCFwsJOmiIYer0d4q6rv+kZ9eQb/PIpQ3doToiLd6hNi9TjtBp2CTmdILdxISIuiXHj38odx85cuRnP3tamWP1qdZPNB5ft8liUwx1dxVs2MPXWztReaNA2F7qRNXJrPLutovO1MN0nHb90pyfoi5aWx8yTSXRWnELqXRmXgDyl8VvQ8gu+Bw76zRC4XEqwso7igqg1JbTU5dOS0w4qV4gxdNwm7HyqgjSqnwlKM6Gu8SZvhaWBh0rlHHIIQjoVNoKd6IVEPVwQvsVvCxS79SVSrsYzNFCwRDQuVYcdkDYNHy/BGFgWDOpFsIW5e50ABKm5vDhN1VwVC+bWTOs9arEJx2Pb9hUd1chXS+z9dq34UaBUIOhTemacOiwu7BdyqKts7Tolw3zU9RF6xLKFkUaW7jD05AG0wS2l3SwYij7wnYJh/M4c+6MPfLITx577Ak7aEM6yyfVC5QDdbcZG9yXSqvylRDy3NzkGdWQh+VLqK6Mw4ZYtnth8Z6kmzvR6jFlrz8GYCunENDpQfvbqzSCvs03BPQadsGphPslBQMjbSGsBnm16sspMB0X1h8GLxYS2h2Pr4ut8uhaOUtxDrurightTC+ozBlRl5MN5ORnZbR1LpvCO5XnMhFq6esypDI9detbvKoXj3Kg7mRzzmtS300UPjMNkFIpoOsmlCuH08cAtGY6AS1Mjpv1d/hZBH2bbwhoGBGqO1SbUEHDRHB7CgA6SxDQYbESE9l2G2FqAS0hrk1BoPeRoG/zDQENAFALt6cAoMsExVw3oVzyt/IxAFVx+l/3kEOdgLajaMfyi616R9C3+YaAXuPq6sf/5d5nz166UiwDAAAAdJ7ykHPlhPK6xwAki319+SGH5hHoO6tebNU7gr7Nt+ULaInXP7zzZ7/7D4/J/vg7zx05eaHYME8+OHvpz773cx3xP3398e2vvzedgP74+vU9b//mtXdPf+72Lc37WshiYR2t+aen91sCtv7q3WJtN1Da/upHu80jsg3Prmt0OW8BAAAWQOWE8kkfA6jjlxO+2KrLBH2bb50Q0P/Ht595/YMz+v/Ea0f/30d+YetTJIlu+ekrJuPS/9ORHlHy9//avOPcR1enEND5srscUse1Mz21cvn4uUu2so7ZT3kK0lxaDG2d5kR5CwAAABOxdUAvtgr6Nt8WJ6CPnlr5p6f3l/VxKtQ2PfOrf9m59krXE+c/shHiP/7Oc1JUP3r5iI2Gamv6X5Lr7h0H9d8GkqWcpMC0o46iqOxYJpEvX/t47WDrSKaHNSZwb92yV1HZppCANGYd1AZotelrj//yyG/O/z/ff0m7fHD2kv7Y2KdFEkKmR1SESvMLh47bYkitBL0dXSu1V8Mppwf9hy37bFM4uw2pdE3ql/yDapPO1DbZKTf4qMHLdgjt7skILkjjtAQ7IW8bEm9p1iHS3NYuW3/17g13PKU1OjstpodejxIAAGC8nBnQi62Cvs23hQpo6ZKyBJF88SkckjhhyFNiV3LKBK6NTab/pWwsQvsjbfQHd/7MNvl/i0FrnPI4t6VB6kp/wrCr7Z7G7BH6QV3qhUhCyLXoEkylSTsqZEitwqciuOGU/Vh+dOnFv/nJyyEbm6l0jces//kH1Yn8503b9Edr1HnQprBvmpOOnbVi89NMc9WOle4Y4lyL4rOkeRsCe5o9Zq1Pc9sX/RQq0wwAADBmLgzixVZB3+bbQqdwVMod1zH670pFf2xQ8Ev37wzSKv0v4eXK24SOqa61eNeHdSWkymoyCCbhcaZCME1AGrN2/9MHX9z11ol/enp/etByJCGkHStFIZVIS0yaWq2/e8dBndT3f/GmgjWcsm/SH8tGP/r6EXIpu8Yj1P/8g6YZpTNS1jX4KGSyR2ubPFftEOmOIU6tKeN56wPbIfGe5pDbityzwk4hPTQAAAAMhqBv862jAloiRsJFa0zBpNIq/W8RStlIAx0/dykIHW2VMitLH8Xwh3f+TGpV/23HsqgKCQgxv/7+GSljT7NtKkcSQqacWrlsj0t6nqSpVQxphA2nnIaZn4DOP6hyo3IE2vdNc7LBywrmXSmLMN0xxKk1KSFv6xLvadYfbfX1Cl8egU69DwAAAMMg6Nt8W46AlnLyMWAJF8lZHyM0XSvJcsMdT2nxtqdelXa5eOWaTSaWzDJZY/8V0qa3yu55/mAQOi6AbDFFIW3s0+Ipi6qQAJ/obPvaJuldpdbSr/NqiMRC2qENCWtt0tFtmoHWpKlVRtlWm4PbcMp+UP1pRUC7azxCC5B5UJ2y9O5/ve95hbTEh30VoJyTZS/bXtqk7setW/ZazKlz0zhtjVPO28rEe5pDbgtlghZ1dBuTDoceIcoQuzxS/IpVBla+qkVZ7UVbAXa88UE5mCKx+ejK7VBGAAAA5k3Qt/m2UAG9YCpb/dlRtKbwpKuap8bmhxRzSu2CyTlT6B2SyOmovF2o3gOxMGVCH6wS77lVvjJFh7hl4e+fGTz+8K46Ld7/DM5KOz8ydZPSNepPhveN0hGaK/POXtw3DDask6GSoG/zbbACWkruTx98cR5Nb9r82AhlHfkh55faBYOAHgDlt7JIPNmwvfz7pft3movTlZUj9EGTVQaTgFbpqHtlSvOLWbQmvPLFIoEGTAebSFJuqztknfzgrLAo0jXq7fstRKO5IwQzMu/spR/bKULpsymO9r+ZrgloXVdTfCVj8QR9m29DHoGGMaC6xmRcsQwzU34riyktm62h9arQ9d8VbYOA9jHLVAEXmz9Fx7qh/pUp7txKAR0m3K/HB2tUvptSKGNT7euLoc0OiyJdU96qeNKOkJDIlt+tI6Stde+gDIvmZesUBY0+Bhq8lmZvyLQ0e11smWcvXrlWF9KiMprjpx+7YEL56oKAVsyZnaj8kIZOdukteNC3+dYnAe1Ft1juAB1M0tjoQvEbHmpQQxNr85FMOttWD5O2qaaY1e6qEg/NQENhUZ2rmNXe170yRWHSo3jL7RHmtzEjofLdlCJMFVMe+v2E1FnuSllZYctf5R5L6AjZyJP+aPcjvznvN6b8sglXkf2x45rr0/SMhDqviYZ+pjvR1pi/zNENIQP0Y5dFudcULn6r3Jq/TWEdHm36ix/s0o5eH3p5N1fmRGJ17/qRf0vaiQohlVqLU5HowqjsbtmftGNsV4sWlZKl97uCvs23TgjoUPDkVMtiW3TcGcVyI4qz+b6AvO4thNUaxYYq6mKbKEk9Jc0omblJJ25lxgubl0yZP41nKPes5CiwqulibUsoeQjo1rHatlhYR2v+8oe7bXjDLvvbtr7qF0NlKQjNQGWwzFemKIB2t7Zff/zFLLTcDZSdKLQyrV19MTgrLIp0TXmrIUd4Ryg9dOp6G5n2qiMsuscV1Thnc1Z6zUizN820NHvdNQpZzt40ZJm6+N0pCuMx+IHSOF23QT7lXpPyNm1zZWmuyqemTcu9Jq20KtHXyCPWlXUlbVRGYgEqr8D0Gggh/VjrAT8TMr1aQsfYEqAwlYdbMEHf5ltXRqBT7wZPO+4MlfMN7xGkXqzEHan/vzhyIr0CytTF5kkqlj8lJ4VldBTToJ26EZZmlJGuscJz7qOrKh4mjsvhvYTMYwJfnWtgFtxlKoxWNJTPcrGt1OUtweqT29JNKeFKqAzW/MoUO5C3H9qkFj19MYtai/DKF3AqWybzghVVy17L27KzGkp9uYoud4TSGjWtJy2A/uvoqg3Coo5ixVmLCGinuZ8ZmiFppi2vHbNsbA7p0I9dLpbhxUKp9Fm3RPls8uBLpW9TeHn0UmMuO7lyWTrk/3vsFTlFkVgPqiESrZdZr2ntwAnpNRBC6qBWM5c/W+Hx+0pPoU5ZNXnDVzIWSdC3+bY4Aa0cNM/ZvYNi7acoo61YpoXQbippF2sd3RnpPYJwS8J2t0XJ0DADbP1QBUqPX6Pp0dPwITZ/mZ3v60kKyUhTqPjDiejS8fsma0n5FOl4C2/Xuv54AmRKkpcoQ8lQW2hbQ1QT0eyaNKMMF1XF8voZNfRAtFWJn9O3tRXYiyuMCi+2xTJ8FhUTqxZCgfXKSgXQH25OKxMFti6xLcpUTtMA5R5+6AhZEVYD+Rc/2KU0eD1pga34y+wdIOmiF2fVEiMX0KnXmvuZIXsVg9ZbUyIaQjr0Y5eLO91QKSgLaF0PLg/0J3WldrdLxXzhHvzhy2/JI9rxfz33uo3oNUeiNOi/3K1ek9akeMHU/xBSv/rvAdKQHn9ludZVp6vIT3OJBH2bb4sT0FKHVlmb52yl49nqGe3XhDaZpC47o9h5Hbsy/PowH9uvL64HLFAkukYf3HX4xcMfqq5P9/I/IbY0AUFAr8W4ju2SplD7lk+koeFX8xYEqygfSFTmwxQ0u0ZHSVtWpUHnGDLTz1HptIrYOgCOKWCrnUMmW/zWQtuJe2y2b3MGtpUJ0DuayxEsnX3HTh0+ca5YgIFCMZwdbxPVtqqxU/e1LKCtbVXXpfxtCrWM1uHRvj6zTs26AptK0Y7WsjdEItJek61xrPHVJosnDanEW6Nv3ac0pDXu1spbM62tpvQ8JeWvZCyeoG/zbdFTOJSPNsm9WE4w6ZleSfZHhN5Sqpm00kZT7JaEdk/vCygSc7P8FCSduVabpOp8cDSED7GlCQgCOiQjTWHDidjKFAVQJLoQw1bLHE+zFQxbVNdfi1LAYWuxZzbavdI1Wh8EvbIlFbgiXaOzq1S0Kjk6OwWrm2DnRUt/bJDDZH1zBvruFgAAABaGamMENEyKSRr96cL1E/Rtvi1UQL/yzsm//OHuOm1nqsj7T67JrEMT9GsqT80NJq30J70voEikvSyScFfCdOG+Y6ckOr0DVA6fxuae1h+f/mVJCslIU9hwItpaRsH8XAxLamW+vXfmouLxhBVrJ6fBNeWja41nmmVUuqYcPnOCnRZdQGurr2/OQA+2fihYDs2XdFvgawCAAVA5kWxZBH2bb4sT0JJBNu4ok36S4vQxS8PkUbpSYdL8VfMplaZ9028+q+UOtyTCfYG6uxKKzXSeOVK7mOZLw3vkaWxalKS26V+eJD9u5Vepw4nUqQ1/xk5H0Y42XqtgpjgtTIpyzN4NoghnEdDNrrFz9ADWvdER7eqX2Tk2lIfmCXauilxAKz0W3mfUNWSg774eEOZOej3IodY1qruk26XZ135N6jqxq3Su6Crd8BsB44Fi2DUaGoXFlFaAvhD0bb4tegrHvJHSMj3XUH3k025sG+JC057RsWpO0twfCwikmnUBiqGb0HIvGGW432FQAbGuXX6TrG7SRC+oScM3+DpNlaRt6Jy3xaSJ7zg6nZz3S+Z0FZqLYeaBoBll4199+iH98mKg3Ga5H/NLqwr41L1EXRLe015ryNZ72s2UrzSd49I/U9d9bIBJld50noKgb/NtaAK63fsCy73LoFIhWawaJKfqAWgLtXx22f/xRm9l8blG3iT7Hw+mC9huOFg3r/kFNeU1aXhTabdu2avFIJFVWMqiOURlaUvf91JeE1KrvaxxKic+VSEbHkgrO4j0iskvv/fVjDKnrv9grqlrv5sP1BAtpCiTJUldYuoy+9L9O73gBLR1xhFo+eVvfvLy/S8dsqI6KWlFUVk8c2i+rsaAvNDc+VxAFikNdkfdbKI+VU73W/Evt5sU9G2+DU1AA8CM5L+VRXW6NZDeJPsfbz5dPNmftLrXGpetqqClUMtr0vB2aFvpbbOhFjoMxVVGFXYvrwmp1a/V/hbbuY+uemL8THMOtJ6ihaJDN/SCDKVcHvRHqN3dnpmWCX6mofOTdi10OOVMZd9GhAMpo+r6VOXrR2u+NpovRTd7zTLZXuurReW/Oh6WXVos9+L+86ZtUsBaYx7xvPU/wRFrx0iwYOmLGsq+KK+xfYV7MP0fjujnq8ssJMwUm/JB0Voaut8jnQdWBvWnrpdrV4VdLcq3+fVFU4c2M2ky0lNYCkHf5hsCGgaICrBNpy6WW0W1/ALm8ywdVWobvpXFs8JbPv/jwUxmpU2m15Wp6jX1Vl6Thvf/Zf+6ii2WqyIv715eE1KbRiLSxPiZ5hzIti6S5l6QY6pLMkWJ9DzULtZtsFNLfeqnr8Cha9HcZwgHshyzP5W56vFojc1hU2Za/2Q9vmHS7DXLHIVRhl+8ck2X1r5jpyzr3HeeS+V887z1P8ERdhRH3lca0mu4Ms4676RXgm8NR/Rkr+/xmTJlp2/BFNXSe6TzQyfV0GtSDqgu8s6nCD0l738qo9K+qF9CXkFZZvp9dTucVkrsao02yU0NHarg0IaOUGWX2P6kvSC7KrRo3SS/DBZP0Lf51iEBHUpgKFqwRNKpLOU3RAo5a6LbOvNG11IQLqHmbVYVzagiGLyAznwri2dFWkv6GmtZrda26jJ96Yp29zLuZb+8Jg3v/yv9qybWbnHagRqi8t3La0JqPRI/iifGTznnQLb74lFK6l4b6iiRKg46BRtfr/x6mZ1pevppt0HknLIfyNtXb33LuaqVdpn5Gm2dpdj2iDqvWVaYdP7hy2/pv78wOHWH5VI533yN/9FeqSNsd8MuZtsqs8gb4vQ1azuv4x5M/4cj6ijSYfpv3QaPTWUqfYGsXyENV1d/2bCvW9nLNQdZHtofhfSM0n8PqWjT/vB6lGto0TzozZl2sQD+JyV1aAjpx1oP+JlkuE+1MvSCLAEKU3m4RRL0bb4tTkAr10yEpV2NsDJ1cHA2zI9K1zh23bs0UVmtLOSToqjmd7OpXM96obXFuqqqjjS1aY2Tw1zPdB6oOrNGTqYyqJIYKkddD7ZVLZ9dGLZSgRXMWkR/U4222liFTL0vu4T03/JfkVs81oSU16ThdZSGdlR+scu4LvLy7pURpqlVAMWpc5Gg0dmFxNgp5xxIKxdP82tDRXi/pP7o3MtfL0ubQG8X65rMylMOB7Jf7avAoU/lhUt/rAPmfyzzTSgMmAavuZvsejPxZLnt7vBcKueb+9H/BEfYUQyPUP/dQZVx1nlHe3mVqwRbysMR9av/afyWMIVMXyDbfHUNA51jQ19XJ642Sx5R59NyUlgrlua8Z5T/b/dr3qlD05BKQ9oRSpPh8ftKd6IuhrSbtHaMJRH0bb4tTkCrm2WtmnmxcqXy2mrP9JqAeVPpGietSX3R3tOnvaxQPf36e2nVbLdp1AybFvGa3RatyKV3ecImHUJlXoXcawoj3HtKjxUOoQChMkoLv/CqJz1uw72tcE9KbYaqAC1WnlqIJ93Xjg79oo9f1NPVa1edTBewLnhdq7oU7Yq1MOX3S6oq0DWs/7rItcmuWJUd6yroOleptytZK3WRe9ei3DquH6Gg+UWWabS2SWnwDpgVt5F8KTp4TTIl9Ze2aqX+KLfveu515bb+e6VtmkZZZyJG+aY8tIrI8s396H8Uc+oIhXGshrT/5iAdpeyLBu/YUSzydGgmPaLOKJ2N4Amzy0/nYi+Q1fqGq2sANPSayp1Pb3TMKf5HYTyj1net7g/rv3nWXKysdgFth7DIQ4dKKHJvQ0NI/eq/Hz1Nhsdf6cS0m7REgr7Nt0VP4ZC2SHWM4Ss9Z8N1AAug0jVC5U1FpVj47BCRLn17RjstJBaJ/qgqtOJtPrUipxjsT+risMkPsXa8KqwK8EP4QbW7VS6KwcZFih0+W5ubKYZwXAspLP40GWlqPXKdmtVczfGk+wIsBS+hxXJLLKBrsWFtAAuj7Is5ecdF3hi8r1bDWyU1Hzr35l6uAmjRe0reDPl/bbXcq+wP23+tn/Rr3t7O2mJDRyhNhrW8Oi9vB10SeEr8OxvLIujbfFuogFaPx7I4rcfDSis5QYjAvKl0jSFfhFEQX1QRskFWlYTQy/TC5qXFir1MBcZUr8vKsMljWz/gb9F6G1Cxe0/lAql47LLxNbaj8PTYonW+y8dN40+TkaY2XZ8TT7ovwFLQJWpNbO9QaUJAd4SyL+bkHb+JpxrVZCIMD1VKah/1Z+llPOjbfFv0CLSUjWmOYnmddKWyUurEP+gNC6PSNUL6Tz3I8hxo04W3btmrRfNas4C2TpHCaE2Y+Bg2eWxrh0/w8mbp9BjSQzSMQJcFdDhuiD9NRppaj1x7pSPQdfGk+wIAAEB3uklB3+bb4gS0v8Xw7uQ71e+duZiu1B8TJemQJ8yb4Brpv5D/5Qvd3GTqUPJ6y2vHwm0aF6wK6YPB6U0fi0H/ze/ppjoBrfXpvSd/Ka8fQn8sHqU/9ME8PbZo0lZ/wnHr7m2lqVWwMLmwOZ7wXfcB4NeD54Dyxyaj66zV17Ls0vVg4cOiUAw2sa8clV1RtsamTqZr/D5mOOJapJ/SsAkAIEXVRbhdCWMj6Nt8W5yA9qk81iiaSHrlnZPpyiIoLJbgmmItjBUJVhO1ldeDyVkTpt4tsTF4rbHOmIXxNxuqsH/ps59MU39De1VG5X/UsPkQvnd+frH+ElylKhxxLdJPadgkFK09TFMsj5J59zFSl9mid4Fk6tmma9Y6q3xsNYMF9Ay9Z6sy64MmC7gbrDJb+SLUuvUbkp9+BDQEfZtvi57C4TzR2zl5AMNmoreyGFqphsrf9i959F/qP5lmW9UoVkaVai/tKCmcrlG7aLPlwhFTwiY1kHZ/wJrS8EIVS5UfQmvUbTCZ0uv+pM6ooRekLEr7GA2dioZNDaQuKy+KdE35ltdomchrtrJdvGfr3qkspK0w0aU1UeCJ0q+YEdAjJ+jbfFuagAaALnOi5q0s3iBJa9qNC1PJW5O3/ZswtdHi8Mk0i8F0QGVU3vipYfur5FWJD+46/OLhDyUvfCZMekRb46Sb0sOZHPeUVAroMMF9Pb7+sWEvKO1jpJ0Kn1Rjzwc39zf0xwIrY1ON4gEqF0W6prx1tEzkNV2iac/QvGN9PytWZe9YudAaux2kCKVKFcYKiMJb0ajs0oR9y4crrwkp1F6K2RcrLy2fXKe0KRKfR5cGVhgv0eV0ipz0e9p0nds7T8uphZEQ9G2+IaABIKImylqacuOUNlpq9lyMCrVA2tGbvcpPpimYmre0jQxRqRX3m/uWAF+jpi4MOfsRy+n0Td70WrvoKkFhvNnWSkuer9FW7W7p7C91vSCR9jHSPHHMTc3ZVadgPIAvuk8tfBpAnup1X6V1Mr2mzHcdqT+WyXaFV3rHFz3D5dD07QceoVxvf5zyvuXDVSYgTaF+bT6GxeYPsSiAX1p+IEtDesmlgS3ZXpMEctLvaxSb9Zm1Jk2t7QhjIOjbfOuKgLayZzXs/O6cqmBMN6FKqJhZb96a4emimiUBS8QHpWTWfYfBYwK03D5ZUVVDbv+tpTxV9ak5Laol0zWj8qLY7D6p/6mLyv9opWFr9h075YFFOKKtNCoTY22nzc8ut8TeiPofb2jXo+wlcp8V2Lrq1FxcljJW2MsvYdSmIKAVw93JF8ic4MSwKNI15a1jJt9rdT1DBfCylnonlZVWtN2httL1qIqMiUtbL8r7lg9XXmPF31OYRiI8vP6XLy0dRbuk6z2w0FZVBV6TBHLS72vqUmuBYQwEfZtvixPQKgBWL1fqYy82uprt+i421KBgmTOi8kM24MnT/3LhnIJWUtUiksh1H0TQuZdVjm2CQeIzLNX6WksTLnjvUHnbHN72b5pV63XBhE+mac1XfrzHYytHVb7GfI0FVkj9L39fwClvsjuzssrXvyjCoX73rq46DX0M5bCrE7nbwtuO6SZlTuhvKH65Mg1jBCeGRZGuScUNiEyv2a/yX+HTnqEWXUCn3vGWS+t9BNoFtO+l/9rF63yLvLxv+XDlNSGFHomitaP4ZZOmROe+5bVjtsnXp4GFolIHz3cJ5KTf1/jFHFJrUcEYCPo23xYnoJtnd+mKD/WpruZ0epYKgzWK1qqlM6J0uVsD6R1H60raYuVEq3KEtimdv6WVTllDeFQhnemh08JvZ+dr0lRZhMuloQ3ziqZYXkdOtPC2Vc5tcJZO30SStlo8aS6VwyuX1MtKH+Qquxjmx1zfyqILpsvCVNdeelO7vzT3gkIfw1SFFq2S1CYVtMqXMIb+hryZllzHFIzWy3Tccx9d9UWZinAaYH63HHvHRF6zYJaH6hkqS8v6NXjHK17rrHp7pP/aPe3ZapNV2jJzfdi3fLjyGgULKVScunjs8+/pVadNuh68TfGD+vo0sNbbYkNbsGH6FYOlTTns7zxNU7sWC4yDoG/zbdFTOE7UzO5SObH1VjB0xactmak0lW0vNl5WbasXPP3Rb/5EqzRCFVT7U06hyp4dwvGoQjrTQ/sDEB6n75Wmf+k0V0aeV0q8VccK6WetnNnQWb7GI0xzyR41S8MrtnAbXSFTF1s8AK2TXsm9Zq69IJgTS/SaqtbF9Gxb+fx7uUUGmJqgb/NtoQJ6U/3sLtOv2uoB1JJ55zgtLXZvKxWg1rOUqXMpsRWKVhrS42yIUKLNe8+OSb002R5VXTqFb1LkXRbQlpiTK5fLJy7Sc1f6PdnKt62fzkKrywTLW2Wpevbe9Q+5VA6fxmZrFCZ1sQUGAICxoQbiTx98sSOtJwyAoG/zbdEj0NJSJomK5U9xiVksJ+pT/13D+ZBkKkBtVNK2Zk60aohQa8o6Ulul76UX9d+O4lFVpnN9p7XD2WiW/tiQqgdOU7V0LAMrT1yk567/7ibt5bPQKjPB81Z/0lMOuVQO79nlayyFFobZaQAAANAKQd/m2+IEdJjdJRmdqqhUmRmpJhM2BplOYJK00hrT4lNMtAoRurxT+EodqfSkc6o8qjSd4dBaYyOvPmXQ9wrpXy4+IVv2udu3KKmpa0T5SS9hpyB1q//NzpL8TafilXMphDcBHR7kYnYawCKpqwmhC+AdgLYI+jbfFiegw+yuILlap5WJVtOxxEPPwqQ1slSvyd/paMglXRvDmIcK0E18vKBYrsIrBHWAJ335Zs4uin/P278pFj5FCUtHUmzEwXrOMrtV6GvUgthbKUbI7AI6x0eTun6KSwVg6QR9m2+LnsLhSH7Z4CX0EWnc+c1CQ0ADzM6JxndT5gvoYnkjFH6iV3NWpqEsoMOdyXSNGpFwr2w8TCegJ/VRDvOIE2CRBH2bb0sT0AAAMD8a7hG5eLU7gZWfX/7jTz9xnN4t9NlW219/z2d2KaSiqnxhaGX8NntNe5XfNTGRgC5v7TshS3O8U+y5zobvA93QR9rR4rfDeRjzu+xzt2954/jZDf1emZhwLmspBugAQd/mGwIaAGBomE6tu8vnAlp//rDm+89SPOHRZ79B72EsNqkreyzER5R9l3L8FlhhFElZ33swX/QJG3bENEDzOfYaz9INvVPssJ6ftsmzxcP4GsVT6SOL3A+n8Da87WHsENLW5jujwe/lxHjkfjiLBGDpBH2bbwhoAIChYbKm7t2ULnr8j2smqSLTtWUV5ZsMrbeRyOaPfof4Ja3+9MEXd7114p+e3i85ZVE5Ch8EdBBb6Zry1r5Tl6UN3rEdReqduveBeoRaU/aR52fZ9Qovx9n/ukSmcZYTUz4X2wqwdIK+zTcENGyM31iU+Zs0fGTIbg6qWrTbc//p64/bO+8AYFlI7kjB1ImVVDMFWeNjhxJD5RFo22SRSCRJGOlPjjhLU/L6+2ekoSsllMLnC+gg6AdAXZY2eMd2FL5JgScdgbaVnrd+uDRMmu0b+r2cGA/mkSs8QBcI+jbfENCwAar4pJXDe6D9j2pDq0ZVY1pj5u8rBIBl0fxuSlczZVmjPz4L1j5xbDWASrf+qCPtL6CUWrqh5qPf6S4hft/rS/fvLPe0bUdLthIwtm+Ahyz1z+g2eKfYcx1JW23S7nXvA9XuDT7SnyCgPYwqee1lkT/9+nsb+r2cGD+KR66VAF0g6Nt8Q0DDZxotq/tSwrCT4VWt/ts4kIKprnzh0HELAABLZx5iZcbXdPr4peQdL9uZK+QwQA5B3+YbAhp+OzZQLH8WF9A2OiKRbeNAPlbxVz/abS2iPXb9x995jtEFAKik8qtMMA8Q0AA5BH2bbwhoKEag/+t9z1c2aekItGpkv9nng9b/sGWfj09LT2/67DcmAQAAALpJ0Lf5hoCGNd47c9HGmMsjFqaV6+ZAWxhxauWyfRXMJ0MDAAAAdJmgb/MNAQ1rw8b2TV0T0Pe/dCgMIZfvupYFtH+qnSkcAKOCx8KWiCpte/FFsTwDqtUb5vIBDJWgb/MNAQ2f0cfhsW4AGB6SvC2+dBIBvUieeO2ofc7GFssC2gdEGnjt02/iFMvrTCegtZdP51NK7D5kM+Wj56QZYE4EfZtvCGgAgHHh86xaeenk7AJaMdzy01cY+xQnzn/U8JITy+r7Xzpkz22LsoCeSAenOT+1gE7fyDTdAzDTHRqgFYK+zTcENADA0EjHBSvfTfmfPvvSSXuFjgLbC4Ndlrk8sjU2bm0iSdrL3kn8x9957i9+sCsIaO1o97V0dAXe9MyvLBk6tHY/99HVdKu/tVq60KO1G2LpcZU2fwvyFCqtF9hbQYuFEpYbR35z3kWze0r5Zu9jljvsDdnBp8p5aWVlu+L3vdKcNxV765a9nsM5me9XSPo/ODFcDHVptvNKrzE7BMBcCfo23xDQMBy8Xi6WJ0FVObehYTCYGGoY0ktfOmmi1gWNy1atcUmkP1Lk6SssfS8FDl/FE77VFhXGHlC290CHrWlqtcmltv6UEzDgour5XyyXsNxLc8A9ZZu0xvLNczj1qT8jnvrXc95zOM3zDTPfw+i/Hys40ROzvkdtmssJsPAAcyXo23xDQMMGWKX2u+ujFGpuc6a4zcIsVafXy8XypyjODe8PesOgqrw8OxCgX1ixrXs3paFr3l46+aOXj5jcEfZh0VRguYSyQuQlxcdKy6JKaOXdOw6mR1fMUu0WMmxNS6iitdrGBy9tk6ek8nDDwE725MrlyhPUidt4rZllvntKFdefPvjirrdO/NPT+5Vv7h0RfJrulea8//cczsl835T+D04M7q5LczkB60cAmC9B3+YbAhrW8Jt9Nh6QktaPaaWcovrOJ9Kl/6cgPdykpC1EitfLxXIVk1bZM54mwLxpeDdleOmkfutGK/XHRpfL4sb38jAWuaFg2pQWPYX/0v07rYSGrSGYkmRhjp+7lIap03CDwc697gQ9w/XfsyWt9F5//4z0qO3ogRWb+9RD+v805/2/JyAn832T/nsDEZyo3/RYdWkuJ0ArAeZN0Lf5hoCGz9TLZdL60UYy9Mdf3PHH33lO9V06ka5hOqMO5JPwFJVXtenR08OJEIMnwPa6eOVaujWtl1NCxZ3OsfP4dSI2jzONxMZRLPKGU1bIhumGaykAWCy6sBveTVl+6aRf6j5gbEOGEje3btmrMGVx42VHMd+29VWVEdvRUBFIS4RQeFNy5a22SYtWmixa2T3PH/Tjes3gCViLdFh4rSL73O1blPOp17z2E56ZypY/vPNnqmeO/Oa8slQuUy9F1ZHCBJ+mNZvvleZ82cU5mW9RWZpt7rWtT50Y3O1HV5LSNJcTYFEBzJWgb/MNAQ1r9ayaSavIQiso0vpRAUKlpn3Tmldr0v+qN10lW3WZTsKz/xaD1hjaPRXQIQb9WouivWwxxN8soO1crNWxo3iE2tdG0TwSbbK5HB7GYiufsgfwVi09U4DF08F3U1qZLRagnunko1ekPap8+phmGB5B3+YbAhrWajEbGHDtaOuNVNF6Nac/1jx/6f6dDQJaMbvyNlmZxr8pmRNpa0R6OBFi8K3aV4vN8TueJP/jTZRisEbd13gkvsloOOU0pI0S1aUEYJyoRKiXbuUF5kHaZfLbCB2nj2mG4RH0bb4hoOG3o7yVsi9VtAoQho1NL6ZqMv1vMStCydPj5y6F+LXV50TaGpEeToQYtEZH3PLaMTtEc/yOJ8n/uFxWDA0j0OWBZ/0pn7KHVLQ+Al2ZEgAAAOgOQd/mGwIa1gZfbVqwTYiUUkyFo5RiOoXDZtdJINqUj9ueelVK8eKVaz6RzkSk/VfIdCZckJUuN23RSA9nyUhjUACpVf23yEWYLmlT64JydbHrf1xA64/FoGPZPE6PRH/+7Hs//9MHX/yLH+zSYsMp6xDKNP33cRQENAAAQPcJ+jbfENCwNNKZD51l37FTDR8GAwAAgP4S9G2+IaBhOXzAnEgAAABYKkHf5hsCGgAAAADGSNC3+YaABgAAAIAxEvRtviGgAQAAAGCMBH2bbwhoAAAAABgjQd/mGwIaAAAAAMZI0Lf5hoAGAAAAgDES9G2+IaABAAAAYIwEfZtvCGgAAAAAGCNB3+YbAhoAAAAAxkjQt/mGgAYAAACAMRL0bb4hoAEAAABgjAR9m28IaAAAAAAYI0Hf5hsCGgAAAADGSNC3+YaABgAAAIAxEvRtviGgAQAAAGCMBH2bbwhoAAAAABgjQd/mGwIaAAAAAMZI0Lf5hoAGAAAAgDES9G2+IaABAAAAYIwEfZtvCGgAAAAAGCNB3+YbAhoAAAAAxkjQt/mGgAYAAACAMRL0bb4hoAEAAABgjAR9m28IaAAAAAAYI0Hf5hsCGgAAAADGSNC3+YaABgAAAIAxEvRtviGgAQAAAGCMBH2bbwhoAAAAABgjQd/mGwIaAAAAAMZI0Lf5hoAGAAAAgDES9G2+IaABAAAAYIwEfZtvCGgAAAAAGCNB3+YbAhoAAAAAxkjQt/mGgAYAAACAMRL0bb4hoAEAAABgjAR9m28IaAAAAAAYI0Hf5hsCGgAAAADGSNC3+YaABgAAAIAxEvRtviGgAQAAAGCMBH2bbwhoAAAAABgjQd/mGwIaAAAAAMZI0Lf5hoAGAAAAgDES9G2+IaABAAAAYIwEfZtvCGgAAAAAGCNB3+YbAhoAAAAAxkjQt/mGgAYAAACAMRL0bb4hoAEAAABgjAR9m28IaAAAAAAYI0Hf5hsCGgAAAADGSNC3+YaABgAAAIAxEvRtviGgAQAAAGCMBH2bbwhoAAAAABgjQd/mGwIaAAAAAMZI0Lf5hoAGAAAAgDES9G2+IaABAAAAYIwEfZtvCGgAAAAAGCNB3+YbAhoAAAAAxkjQt/mGgAYAAACAMRL0bb4hoAEAAABgjAR9m28IaAAAAAAYI0Hf5hsCGgAAAADGSNC3+YaABgAAAIAxEvRtviGgAQAAAGCMBH2bbwhoAAAAABgjQd/mGwIaAAAAAMZI0Lf5hoAGAAAAgDES9G2+IaABAAAAYIwEfZtvCGgAAAAAGCNB3+YbAhoAAAAAxkjQt/mGgAYAAACAMRL0bb4hoAEAAABgjAR9m28IaAAAAAAYI0Hf5hsCGgAAAADGSNC3+YaABgAAAIAxEvRtviGgAQAAAGCMBH2bbwhoAAAAABgjQd/mGwIaAAAAAMZI0Lf5hoAGAAAAgDES9G2+IaABAAAAYIwEfZtvCGgAAAAAGCNB3+YbAhoAAAAAxkjQt/mGgAYAAACAMRL0bb4hoAEAAABgjAR9m28IaAAAAAAYI0Hf5hsCGgAAAADGSNC3+YaABgAAAIAxEvRtviGgAQAAAGCMBH2bbwhoAAAAABgjQd/mGwIaAAAAAMZI0Lf5hoAGAAAAgDES9G2+IaABAAAAYIwEfZtvCGgAAAAAGCNB3+YbAhoAAAAAxkjQt/mGgAYAAACAMRL0bb4hoAEAAABgjAR9m28IaAAAAAAYI0Hf5hsCGgAAAADGSNC3+YaABgAAAIAxEvRtviGgAQAAAGCMBH2bbwhoAAAAABgjQd/mGwIaAAAAAMZI0Lf5hoAGAAAAgDES9G2+IaABAAAAYIwEfZtvCGgAAAAAGCNB3+YbAhoAAAAAxkjQt/mGgAYAAACAMRL0bb4hoAEAAABgjAR9m28IaAAAAAAYI0Hf5hsCGgAAAADGSNC3+TalgMYwDMMwDMOwcRoCGsMwDMMwDMMmMAQ0hmEYhmEYhk1gCGgMwzAMwzAMm8AQ0BiGYRiGYRg2gSGgMQzDMAzDMGwCQ0BjGIZhGIZh2ASGgMYwDMMwDMOwCQwBjWEYhmEYhmETGAIawzAMwzAMwyYwBDSGYRiGYRiGTWAIaAzDMAzDMAybwBDQGIZhGIZhGDaBIaAxDMMwDMMwbAJDQGMYhmEYhmHYBIaAxjAMwzAMw7AJDAGNYRiGYRiGYRMYAhrDMAzDMAzDJjAENIZhGIZhGIZl25P/7v8H7YSg63qrszwAAAAASUVORK5CYII=;" vertex="1" parent="1">
          <mxGeometry width="960" height="540" as="geometry" />
        </mxCell>
      </root>
    </mxGraphModel>
  </diagram>
</mxfile>
